G04 #@! TF.GenerationSoftware,KiCad,Pcbnew,7.0.6*
G04 #@! TF.CreationDate,2023-09-07T09:30:41-03:00*
G04 #@! TF.ProjectId,Lift Switch,4c696674-2053-4776-9974-63682e6b6963,rev?*
G04 #@! TF.SameCoordinates,Original*
G04 #@! TF.FileFunction,Copper,L2,Bot*
G04 #@! TF.FilePolarity,Positive*
%FSLAX46Y46*%
G04 Gerber Fmt 4.6, Leading zero omitted, Abs format (unit mm)*
G04 Created by KiCad (PCBNEW 7.0.6) date 2023-09-07 09:30:41*
%MOMM*%
%LPD*%
G01*
G04 APERTURE LIST*
G04 Aperture macros list*
%AMOutline5P*
0 Free polygon, 5 corners , with rotation*
0 The origin of the aperture is its center*
0 number of corners: always 5*
0 $1 to $10 corner X, Y*
0 $11 Rotation angle, in degrees counterclockwise*
0 create outline with 5 corners*
4,1,5,$1,$2,$3,$4,$5,$6,$7,$8,$9,$10,$1,$2,$11*%
%AMOutline6P*
0 Free polygon, 6 corners , with rotation*
0 The origin of the aperture is its center*
0 number of corners: always 6*
0 $1 to $12 corner X, Y*
0 $13 Rotation angle, in degrees counterclockwise*
0 create outline with 6 corners*
4,1,6,$1,$2,$3,$4,$5,$6,$7,$8,$9,$10,$11,$12,$1,$2,$13*%
%AMOutline7P*
0 Free polygon, 7 corners , with rotation*
0 The origin of the aperture is its center*
0 number of corners: always 7*
0 $1 to $14 corner X, Y*
0 $15 Rotation angle, in degrees counterclockwise*
0 create outline with 7 corners*
4,1,7,$1,$2,$3,$4,$5,$6,$7,$8,$9,$10,$11,$12,$13,$14,$1,$2,$15*%
%AMOutline8P*
0 Free polygon, 8 corners , with rotation*
0 The origin of the aperture is its center*
0 number of corners: always 8*
0 $1 to $16 corner X, Y*
0 $17 Rotation angle, in degrees counterclockwise*
0 create outline with 8 corners*
4,1,8,$1,$2,$3,$4,$5,$6,$7,$8,$9,$10,$11,$12,$13,$14,$15,$16,$1,$2,$17*%
G04 Aperture macros list end*
G04 #@! TA.AperFunction,ComponentPad*
%ADD10C,1.930400*%
G04 #@! TD*
G04 #@! TA.AperFunction,ComponentPad*
%ADD11Outline8P,-0.965200X0.482600X-0.482600X0.965200X0.482600X0.965200X0.965200X0.482600X0.965200X-0.482600X0.482600X-0.965200X-0.482600X-0.965200X-0.965200X-0.482600X270.000000*%
G04 #@! TD*
G04 #@! TA.AperFunction,ComponentPad*
%ADD12C,1.778000*%
G04 #@! TD*
G04 #@! TA.AperFunction,ComponentPad*
%ADD13C,3.200000*%
G04 #@! TD*
G04 #@! TA.AperFunction,ComponentPad*
%ADD14C,1.800000*%
G04 #@! TD*
G04 #@! TA.AperFunction,ComponentPad*
%ADD15C,2.800000*%
G04 #@! TD*
G04 #@! TA.AperFunction,ComponentPad*
%ADD16C,1.600000*%
G04 #@! TD*
G04 #@! TA.AperFunction,ComponentPad*
%ADD17O,1.600000X1.600000*%
G04 #@! TD*
G04 #@! TA.AperFunction,ComponentPad*
%ADD18R,1.600000X1.600000*%
G04 #@! TD*
G04 #@! TA.AperFunction,ComponentPad*
%ADD19O,2.000000X1.000000*%
G04 #@! TD*
G04 #@! TA.AperFunction,ComponentPad*
%ADD20C,2.000000*%
G04 #@! TD*
G04 #@! TA.AperFunction,ComponentPad*
%ADD21C,2.300000*%
G04 #@! TD*
G04 #@! TA.AperFunction,ComponentPad*
%ADD22O,1.500000X2.000000*%
G04 #@! TD*
G04 #@! TA.AperFunction,ViaPad*
%ADD23C,0.800000*%
G04 #@! TD*
G04 #@! TA.AperFunction,Conductor*
%ADD24C,0.508000*%
G04 #@! TD*
G04 #@! TA.AperFunction,Conductor*
%ADD25C,0.381000*%
G04 #@! TD*
G04 APERTURE END LIST*
D10*
X140970000Y-105664000D03*
X140970000Y-108204000D03*
D11*
X140970000Y-110744000D03*
D12*
X140970000Y-113284000D03*
X138430000Y-113284000D03*
D13*
X139700000Y-117094000D03*
D14*
X128270000Y-85090000D03*
X128270000Y-87630000D03*
X128270000Y-90170000D03*
X128270000Y-92710000D03*
X128270000Y-95250000D03*
X140970000Y-95250000D03*
X140970000Y-92710000D03*
X140970000Y-90170000D03*
X140970000Y-87630000D03*
X140970000Y-85090000D03*
D15*
X140335000Y-99060000D03*
X128905000Y-99060000D03*
D16*
X138430000Y-96012000D03*
D17*
X130810000Y-96012000D03*
D18*
X130820000Y-92969000D03*
D17*
X130820000Y-90429000D03*
X138440000Y-90429000D03*
X138440000Y-92969000D03*
D19*
X134620000Y-118924000D03*
X134620000Y-121424000D03*
X134620000Y-116424000D03*
D20*
X133527000Y-104866000D03*
X133527000Y-100366000D03*
D21*
X136027000Y-99116000D03*
X136027000Y-106116000D03*
D22*
X131870000Y-87700000D03*
X136120000Y-82400000D03*
X137370000Y-87700000D03*
D23*
X138176000Y-108458000D03*
X130683000Y-83820000D03*
X140716000Y-103886000D03*
X133096000Y-102616000D03*
X128397000Y-80391000D03*
X139065000Y-85217000D03*
X132080000Y-113284000D03*
X134620000Y-77597000D03*
X131191000Y-97790000D03*
X134275651Y-94160696D03*
X137160000Y-116586000D03*
X128524000Y-114173000D03*
X128651000Y-101600000D03*
X128905000Y-117856000D03*
X140716000Y-101473000D03*
X130175000Y-86487000D03*
X136271000Y-120269000D03*
X128397000Y-104902000D03*
X135382000Y-103886000D03*
X128397000Y-77597000D03*
X136271000Y-113030000D03*
X132969000Y-108331000D03*
X140843000Y-77724000D03*
X134493000Y-87503000D03*
X138811000Y-81534000D03*
X132842000Y-120269000D03*
X130355427Y-102140353D03*
X136306920Y-90423196D03*
X136306500Y-92964000D03*
X131099500Y-101473000D03*
X139719101Y-93536897D03*
D24*
X135452500Y-91277616D02*
X136306920Y-90423196D01*
X130806237Y-100029233D02*
X135452500Y-95382970D01*
X135452500Y-92964000D02*
X135452500Y-91277616D01*
X130245500Y-102030426D02*
X130245500Y-101346000D01*
X130245500Y-100589970D02*
X130806237Y-100029233D01*
X130245500Y-101346000D02*
X130245500Y-100589970D01*
X130355427Y-102140353D02*
X130245500Y-102030426D01*
X135452500Y-95382970D02*
X135452500Y-92964000D01*
X140970000Y-110744000D02*
X139550800Y-109324800D01*
X137186000Y-89909576D02*
X138574000Y-88521576D01*
X137160000Y-90450000D02*
X137186000Y-90424000D01*
X137160000Y-96515424D02*
X137160000Y-90450000D01*
X139550800Y-109324800D02*
X139550800Y-100897752D01*
X138574000Y-88521576D02*
X138574000Y-87486000D01*
X138481000Y-99827952D02*
X138481000Y-97836424D01*
X138481000Y-97836424D02*
X137160000Y-96515424D01*
X137186000Y-90424000D02*
X137186000Y-89909576D01*
X139550800Y-100897752D02*
X138481000Y-99827952D01*
X138574000Y-87486000D02*
X140970000Y-85090000D01*
X131099500Y-101473000D02*
X131099500Y-100737233D01*
X132682367Y-99154366D02*
X136306500Y-95530233D01*
X131099500Y-100737233D02*
X132682367Y-99154366D01*
X136306500Y-95530233D02*
X136306500Y-92964000D01*
D25*
X139719101Y-93536897D02*
X139679500Y-93497296D01*
X139679500Y-88920500D02*
X140970000Y-87630000D01*
X139679500Y-93497296D02*
X139679500Y-88920500D01*
G04 #@! TA.AperFunction,Conductor*
G36*
X136673433Y-95893939D02*
G01*
X136702938Y-95936076D01*
X136705500Y-95955539D01*
X136705500Y-96487781D01*
X136705263Y-96491994D01*
X136700687Y-96532606D01*
X136700687Y-96532613D01*
X136711843Y-96591572D01*
X136720785Y-96650899D01*
X136722447Y-96656286D01*
X136722393Y-96656302D01*
X136724246Y-96661932D01*
X136724298Y-96661914D01*
X136726159Y-96667233D01*
X136754196Y-96720281D01*
X136780230Y-96774339D01*
X136780233Y-96774345D01*
X136780237Y-96774349D01*
X136783408Y-96779000D01*
X136783361Y-96779031D01*
X136786787Y-96783860D01*
X136786832Y-96783828D01*
X136790177Y-96788360D01*
X136790178Y-96788361D01*
X136790180Y-96788364D01*
X136832609Y-96830793D01*
X136873423Y-96874780D01*
X136873424Y-96874781D01*
X136877832Y-96878296D01*
X136877797Y-96878339D01*
X136887933Y-96886117D01*
X138004474Y-98002658D01*
X138026214Y-98049278D01*
X138026500Y-98055832D01*
X138026500Y-99800309D01*
X138026263Y-99804522D01*
X138021687Y-99845134D01*
X138021687Y-99845141D01*
X138032843Y-99904100D01*
X138041785Y-99963427D01*
X138043447Y-99968814D01*
X138043393Y-99968830D01*
X138045246Y-99974460D01*
X138045298Y-99974442D01*
X138047159Y-99979761D01*
X138075196Y-100032809D01*
X138088291Y-100060000D01*
X138101233Y-100086873D01*
X138101237Y-100086877D01*
X138104408Y-100091528D01*
X138104361Y-100091559D01*
X138107787Y-100096388D01*
X138107832Y-100096356D01*
X138111177Y-100100888D01*
X138111178Y-100100889D01*
X138111180Y-100100892D01*
X138153609Y-100143321D01*
X138194423Y-100187308D01*
X138194424Y-100187309D01*
X138198832Y-100190824D01*
X138198797Y-100190867D01*
X138208933Y-100198645D01*
X138642765Y-100632477D01*
X139074274Y-101063985D01*
X139096014Y-101110605D01*
X139096300Y-101117159D01*
X139096300Y-109297157D01*
X139096063Y-109301370D01*
X139091487Y-109341982D01*
X139091487Y-109341989D01*
X139102643Y-109400948D01*
X139111585Y-109460275D01*
X139113247Y-109465662D01*
X139113193Y-109465678D01*
X139115046Y-109471308D01*
X139115098Y-109471290D01*
X139116959Y-109476609D01*
X139144996Y-109529657D01*
X139168422Y-109578300D01*
X139171033Y-109583721D01*
X139171037Y-109583725D01*
X139174208Y-109588376D01*
X139174161Y-109588407D01*
X139177587Y-109593236D01*
X139177632Y-109593204D01*
X139180977Y-109597736D01*
X139180978Y-109597737D01*
X139180980Y-109597740D01*
X139223409Y-109640169D01*
X139264223Y-109684156D01*
X139264224Y-109684157D01*
X139268632Y-109687672D01*
X139268597Y-109687715D01*
X139278733Y-109695493D01*
X139782274Y-110199034D01*
X139804014Y-110245654D01*
X139804300Y-110252208D01*
X139804300Y-111246352D01*
X139815931Y-111304830D01*
X139815933Y-111304835D01*
X139849054Y-111354404D01*
X139849062Y-111354413D01*
X140359583Y-111864934D01*
X140359587Y-111864937D01*
X140359590Y-111864940D01*
X140392418Y-111886875D01*
X140409164Y-111898064D01*
X140409166Y-111898065D01*
X140409169Y-111898067D01*
X140438410Y-111903883D01*
X140467651Y-111909700D01*
X140467652Y-111909700D01*
X141472353Y-111909700D01*
X141491845Y-111905822D01*
X141530832Y-111898068D01*
X141580408Y-111864942D01*
X141763526Y-111681823D01*
X141810146Y-111660084D01*
X141859833Y-111673398D01*
X141889338Y-111715535D01*
X141891900Y-111734998D01*
X141891900Y-112479839D01*
X141874307Y-112528177D01*
X141829758Y-112553897D01*
X141779100Y-112544964D01*
X141766038Y-112535412D01*
X141629386Y-112410836D01*
X141457716Y-112304542D01*
X141269434Y-112231601D01*
X141236353Y-112225417D01*
X141070957Y-112194500D01*
X140869043Y-112194500D01*
X140736725Y-112219233D01*
X140670565Y-112231601D01*
X140482284Y-112304542D01*
X140482283Y-112304542D01*
X140310613Y-112410836D01*
X140161400Y-112546863D01*
X140039717Y-112707998D01*
X139949719Y-112888739D01*
X139949717Y-112888742D01*
X139894462Y-113082942D01*
X139875832Y-113283997D01*
X139875832Y-113284002D01*
X139894462Y-113485057D01*
X139949717Y-113679257D01*
X139949719Y-113679260D01*
X140039717Y-113860001D01*
X140161400Y-114021136D01*
X140310613Y-114157163D01*
X140482283Y-114263457D01*
X140482285Y-114263457D01*
X140482287Y-114263459D01*
X140670567Y-114336399D01*
X140869043Y-114373500D01*
X140869048Y-114373500D01*
X141070952Y-114373500D01*
X141070957Y-114373500D01*
X141269433Y-114336399D01*
X141457713Y-114263459D01*
X141629384Y-114157165D01*
X141766039Y-114032586D01*
X141813612Y-114013023D01*
X141862631Y-114028617D01*
X141890159Y-114072072D01*
X141891900Y-114088160D01*
X141891900Y-116549544D01*
X141874307Y-116597882D01*
X141829758Y-116623602D01*
X141779100Y-116614669D01*
X141746035Y-116575264D01*
X141743073Y-116564844D01*
X141734574Y-116523945D01*
X141734570Y-116523933D01*
X141638001Y-116252210D01*
X141638000Y-116252209D01*
X141505323Y-115996155D01*
X141361211Y-115791996D01*
X140748545Y-116404662D01*
X140747433Y-116402596D01*
X140607145Y-116226680D01*
X140437701Y-116078642D01*
X140386649Y-116048140D01*
X141000368Y-115434421D01*
X140918477Y-115367798D01*
X140672085Y-115217965D01*
X140672078Y-115217961D01*
X140407585Y-115103075D01*
X140407576Y-115103072D01*
X140129887Y-115025268D01*
X139844185Y-114986000D01*
X139555815Y-114986000D01*
X139270112Y-115025268D01*
X138992423Y-115103072D01*
X138992414Y-115103075D01*
X138727921Y-115217961D01*
X138727914Y-115217965D01*
X138481519Y-115367801D01*
X138481512Y-115367806D01*
X138399630Y-115434420D01*
X138399630Y-115434421D01*
X139013150Y-116047941D01*
X138874253Y-116148856D01*
X138718761Y-116311488D01*
X138654949Y-116408158D01*
X138038787Y-115791996D01*
X138038786Y-115791996D01*
X137894678Y-115996151D01*
X137761999Y-116252209D01*
X137761998Y-116252210D01*
X137665429Y-116523933D01*
X137665425Y-116523945D01*
X137606755Y-116806280D01*
X137606755Y-116806283D01*
X137587074Y-117093999D01*
X137606755Y-117381716D01*
X137606755Y-117381719D01*
X137665425Y-117664054D01*
X137665429Y-117664066D01*
X137761998Y-117935789D01*
X137761999Y-117935790D01*
X137894678Y-118191848D01*
X138038787Y-118396002D01*
X138651453Y-117783335D01*
X138652567Y-117785404D01*
X138792855Y-117961320D01*
X138962299Y-118109358D01*
X139013349Y-118139859D01*
X138399630Y-118753577D01*
X138481514Y-118820195D01*
X138481521Y-118820200D01*
X138727914Y-118970034D01*
X138727921Y-118970038D01*
X138992414Y-119084924D01*
X138992423Y-119084927D01*
X139270112Y-119162731D01*
X139555815Y-119202000D01*
X139844185Y-119202000D01*
X140129887Y-119162731D01*
X140407576Y-119084927D01*
X140407585Y-119084924D01*
X140612207Y-118996043D01*
X140663552Y-118992922D01*
X140704891Y-119023535D01*
X140716880Y-119073558D01*
X140693911Y-119119584D01*
X140690377Y-119122730D01*
X137757637Y-121572584D01*
X137757496Y-121572685D01*
X137712225Y-121610518D01*
X137709624Y-121612506D01*
X137584994Y-121699445D01*
X137573661Y-121705965D01*
X137440323Y-121767927D01*
X137428030Y-121772386D01*
X137285976Y-121810313D01*
X137273099Y-121812575D01*
X137172410Y-121821338D01*
X137121628Y-121825758D01*
X137118368Y-121825899D01*
X137081893Y-121825890D01*
X137064949Y-121825887D01*
X137064948Y-121825887D01*
X137059131Y-121825886D01*
X137058955Y-121825900D01*
X135824581Y-121825900D01*
X135776243Y-121808307D01*
X135750523Y-121763758D01*
X135757995Y-121715753D01*
X135779788Y-121674228D01*
X135779789Y-121674227D01*
X135779789Y-121674226D01*
X135779790Y-121674225D01*
X135820500Y-121509056D01*
X135820500Y-121338944D01*
X135779790Y-121173775D01*
X135700734Y-121023148D01*
X135700732Y-121023146D01*
X135700731Y-121023144D01*
X135587937Y-120895825D01*
X135587932Y-120895820D01*
X135587929Y-120895817D01*
X135447930Y-120799182D01*
X135288872Y-120738860D01*
X135162372Y-120723500D01*
X134077628Y-120723500D01*
X133951128Y-120738860D01*
X133951126Y-120738860D01*
X133951124Y-120738861D01*
X133792072Y-120799181D01*
X133792069Y-120799182D01*
X133652072Y-120895816D01*
X133652062Y-120895825D01*
X133539268Y-121023144D01*
X133539266Y-121023147D01*
X133460210Y-121173774D01*
X133419500Y-121338945D01*
X133419500Y-121509054D01*
X133460210Y-121674227D01*
X133460211Y-121674228D01*
X133482005Y-121715753D01*
X133488891Y-121766730D01*
X133461398Y-121810206D01*
X133415419Y-121825900D01*
X132181045Y-121825900D01*
X132180868Y-121825886D01*
X132175051Y-121825887D01*
X132158495Y-121825890D01*
X132121557Y-121825899D01*
X132118287Y-121825758D01*
X131966899Y-121812582D01*
X131954021Y-121810320D01*
X131811968Y-121772393D01*
X131799676Y-121767935D01*
X131694309Y-121718972D01*
X131666332Y-121705971D01*
X131654999Y-121699451D01*
X131530448Y-121612566D01*
X131527850Y-121610581D01*
X131482504Y-121572685D01*
X131482362Y-121572584D01*
X128413540Y-119009056D01*
X133419500Y-119009056D01*
X133447518Y-119122730D01*
X133460210Y-119174225D01*
X133539266Y-119324852D01*
X133539268Y-119324855D01*
X133652062Y-119452174D01*
X133652067Y-119452178D01*
X133652071Y-119452183D01*
X133792070Y-119548818D01*
X133951128Y-119609140D01*
X134077628Y-119624500D01*
X135162372Y-119624500D01*
X135288872Y-119609140D01*
X135447930Y-119548818D01*
X135587929Y-119452183D01*
X135700734Y-119324852D01*
X135779790Y-119174225D01*
X135820500Y-119009056D01*
X135820500Y-118838944D01*
X135779790Y-118673775D01*
X135700734Y-118523148D01*
X135700732Y-118523146D01*
X135700731Y-118523144D01*
X135587937Y-118395825D01*
X135587932Y-118395820D01*
X135587929Y-118395817D01*
X135447930Y-118299182D01*
X135288872Y-118238860D01*
X135162372Y-118223500D01*
X134077628Y-118223500D01*
X133951128Y-118238860D01*
X133951126Y-118238860D01*
X133951124Y-118238861D01*
X133792072Y-118299181D01*
X133792069Y-118299182D01*
X133652072Y-118395816D01*
X133652062Y-118395825D01*
X133539268Y-118523144D01*
X133539266Y-118523147D01*
X133460210Y-118673774D01*
X133460209Y-118673775D01*
X133460210Y-118673775D01*
X133419500Y-118838944D01*
X133419500Y-119009056D01*
X128413540Y-119009056D01*
X128135987Y-118777203D01*
X128134206Y-118775617D01*
X127938179Y-118589541D01*
X127934986Y-118586107D01*
X127883364Y-118523147D01*
X127764346Y-118377989D01*
X127761609Y-118374190D01*
X127618168Y-118146461D01*
X127615924Y-118142352D01*
X127501917Y-117898565D01*
X127500200Y-117894203D01*
X127417389Y-117638126D01*
X127416227Y-117633583D01*
X127365901Y-117369200D01*
X127365313Y-117364548D01*
X127348176Y-117094747D01*
X127348100Y-117092363D01*
X127348100Y-116509056D01*
X133419500Y-116509056D01*
X133442096Y-116600733D01*
X133460210Y-116674225D01*
X133539266Y-116824852D01*
X133539268Y-116824855D01*
X133652062Y-116952174D01*
X133652067Y-116952178D01*
X133652071Y-116952183D01*
X133792070Y-117048818D01*
X133951128Y-117109140D01*
X134077628Y-117124500D01*
X135162372Y-117124500D01*
X135288872Y-117109140D01*
X135447930Y-117048818D01*
X135587929Y-116952183D01*
X135700734Y-116824852D01*
X135779790Y-116674225D01*
X135820500Y-116509056D01*
X135820500Y-116338944D01*
X135779790Y-116173775D01*
X135700734Y-116023148D01*
X135700732Y-116023146D01*
X135700731Y-116023144D01*
X135587937Y-115895825D01*
X135587932Y-115895820D01*
X135587929Y-115895817D01*
X135447930Y-115799182D01*
X135288872Y-115738860D01*
X135162372Y-115723500D01*
X134077628Y-115723500D01*
X133951128Y-115738860D01*
X133951126Y-115738860D01*
X133951124Y-115738861D01*
X133792072Y-115799181D01*
X133792069Y-115799182D01*
X133652072Y-115895816D01*
X133652062Y-115895825D01*
X133539268Y-116023144D01*
X133539266Y-116023147D01*
X133460210Y-116173774D01*
X133460209Y-116173775D01*
X133460210Y-116173775D01*
X133419500Y-116338944D01*
X133419500Y-116509056D01*
X127348100Y-116509056D01*
X127348100Y-113284002D01*
X137335832Y-113284002D01*
X137354462Y-113485057D01*
X137409717Y-113679257D01*
X137409719Y-113679260D01*
X137499717Y-113860001D01*
X137621400Y-114021136D01*
X137770613Y-114157163D01*
X137942283Y-114263457D01*
X137942285Y-114263457D01*
X137942287Y-114263459D01*
X138130567Y-114336399D01*
X138329043Y-114373500D01*
X138329048Y-114373500D01*
X138530952Y-114373500D01*
X138530957Y-114373500D01*
X138729433Y-114336399D01*
X138917713Y-114263459D01*
X139089384Y-114157165D01*
X139238600Y-114021136D01*
X139360280Y-113860005D01*
X139450281Y-113679259D01*
X139505538Y-113485053D01*
X139524168Y-113284000D01*
X139505538Y-113082947D01*
X139505537Y-113082942D01*
X139450282Y-112888742D01*
X139450280Y-112888739D01*
X139360282Y-112707998D01*
X139238599Y-112546863D01*
X139089386Y-112410836D01*
X138917716Y-112304542D01*
X138729434Y-112231601D01*
X138696353Y-112225417D01*
X138530957Y-112194500D01*
X138329043Y-112194500D01*
X138196725Y-112219234D01*
X138130565Y-112231601D01*
X137942284Y-112304542D01*
X137942283Y-112304542D01*
X137770613Y-112410836D01*
X137621400Y-112546863D01*
X137499717Y-112707998D01*
X137409719Y-112888739D01*
X137409717Y-112888742D01*
X137354462Y-113082942D01*
X137335832Y-113283997D01*
X137335832Y-113284002D01*
X127348100Y-113284002D01*
X127348100Y-106116000D01*
X134671341Y-106116000D01*
X134691936Y-106351403D01*
X134691936Y-106351406D01*
X134691937Y-106351408D01*
X134753097Y-106579663D01*
X134753098Y-106579666D01*
X134852961Y-106793824D01*
X134852964Y-106793829D01*
X134852965Y-106793830D01*
X134879471Y-106831684D01*
X134988507Y-106987404D01*
X135155595Y-107154492D01*
X135155598Y-107154494D01*
X135155599Y-107154495D01*
X135349170Y-107290035D01*
X135349172Y-107290035D01*
X135349175Y-107290038D01*
X135527401Y-107373145D01*
X135563337Y-107389903D01*
X135791592Y-107451063D01*
X136027000Y-107471659D01*
X136262408Y-107451063D01*
X136490663Y-107389903D01*
X136704830Y-107290035D01*
X136898401Y-107154495D01*
X137065495Y-106987401D01*
X137201035Y-106793830D01*
X137300903Y-106579663D01*
X137362063Y-106351408D01*
X137382659Y-106116000D01*
X137362063Y-105880592D01*
X137300903Y-105652337D01*
X137230187Y-105500687D01*
X137201038Y-105438176D01*
X137201035Y-105438173D01*
X137201035Y-105438171D01*
X137065495Y-105244599D01*
X137065494Y-105244598D01*
X137065492Y-105244595D01*
X136898404Y-105077507D01*
X136704824Y-104941961D01*
X136490666Y-104842098D01*
X136490663Y-104842097D01*
X136262408Y-104780937D01*
X136262406Y-104780936D01*
X136262403Y-104780936D01*
X136027000Y-104760341D01*
X135791596Y-104780936D01*
X135791592Y-104780936D01*
X135791592Y-104780937D01*
X135674539Y-104812301D01*
X135563337Y-104842097D01*
X135563333Y-104842098D01*
X135349176Y-104941961D01*
X135155595Y-105077507D01*
X134988507Y-105244595D01*
X134852961Y-105438176D01*
X134753098Y-105652333D01*
X134753097Y-105652337D01*
X134691936Y-105880596D01*
X134671341Y-106116000D01*
X127348100Y-106116000D01*
X127348100Y-104866002D01*
X132321357Y-104866002D01*
X132341885Y-105087536D01*
X132341886Y-105087544D01*
X132402768Y-105301519D01*
X132402772Y-105301530D01*
X132501940Y-105500687D01*
X132636015Y-105678232D01*
X132636018Y-105678235D01*
X132800435Y-105828122D01*
X132800437Y-105828123D01*
X132800438Y-105828124D01*
X132989599Y-105945247D01*
X133197060Y-106025618D01*
X133415757Y-106066500D01*
X133415761Y-106066500D01*
X133638239Y-106066500D01*
X133638243Y-106066500D01*
X133856940Y-106025618D01*
X134064401Y-105945247D01*
X134253562Y-105828124D01*
X134417981Y-105678236D01*
X134552058Y-105500689D01*
X134651229Y-105301528D01*
X134712115Y-105087536D01*
X134729433Y-104900638D01*
X134732643Y-104866002D01*
X134732643Y-104865997D01*
X134722852Y-104760341D01*
X134712115Y-104644464D01*
X134712113Y-104644458D01*
X134712113Y-104644455D01*
X134651231Y-104430480D01*
X134651229Y-104430472D01*
X134601440Y-104330484D01*
X134552059Y-104231312D01*
X134417984Y-104053767D01*
X134417981Y-104053764D01*
X134253564Y-103903877D01*
X134064405Y-103786755D01*
X134064402Y-103786754D01*
X134064401Y-103786753D01*
X133856940Y-103706382D01*
X133638243Y-103665500D01*
X133415757Y-103665500D01*
X133240799Y-103698205D01*
X133197059Y-103706382D01*
X132989594Y-103786755D01*
X132800435Y-103903877D01*
X132636018Y-104053764D01*
X132636015Y-104053767D01*
X132501940Y-104231312D01*
X132402772Y-104430469D01*
X132402768Y-104430480D01*
X132341886Y-104644455D01*
X132341885Y-104644463D01*
X132321357Y-104865997D01*
X132321357Y-104866002D01*
X127348100Y-104866002D01*
X127348100Y-100288838D01*
X127365693Y-100240500D01*
X127370126Y-100235664D01*
X128041177Y-99564612D01*
X128110146Y-99675263D01*
X128250268Y-99822671D01*
X128398420Y-99925788D01*
X127747393Y-100576814D01*
X127870824Y-100669213D01*
X128110357Y-100800008D01*
X128366091Y-100895392D01*
X128632761Y-100953402D01*
X128632784Y-100953405D01*
X128904994Y-100972874D01*
X128905006Y-100972874D01*
X129177215Y-100953405D01*
X129177238Y-100953402D01*
X129443908Y-100895392D01*
X129689520Y-100803783D01*
X129740958Y-100803375D01*
X129780625Y-100836126D01*
X129791000Y-100874242D01*
X129791000Y-101918858D01*
X129785276Y-101947635D01*
X129770384Y-101983587D01*
X129770383Y-101983589D01*
X129770383Y-101983591D01*
X129757864Y-102078681D01*
X129749745Y-102140352D01*
X129770383Y-102297116D01*
X129830890Y-102443192D01*
X129830892Y-102443195D01*
X129927144Y-102568635D01*
X130005228Y-102628550D01*
X130052586Y-102664889D01*
X130198665Y-102725397D01*
X130355427Y-102746035D01*
X130512189Y-102725397D01*
X130658268Y-102664889D01*
X130783709Y-102568635D01*
X130879963Y-102443194D01*
X130940471Y-102297115D01*
X130961109Y-102140353D01*
X130961108Y-102140349D01*
X130961631Y-102136380D01*
X130985383Y-102090752D01*
X131032908Y-102071067D01*
X131045992Y-102071637D01*
X131099500Y-102078682D01*
X131256262Y-102058044D01*
X131402341Y-101997536D01*
X131527782Y-101901282D01*
X131624036Y-101775841D01*
X131684544Y-101629762D01*
X131705182Y-101473000D01*
X131684544Y-101316238D01*
X131624036Y-101170159D01*
X131624033Y-101170155D01*
X131569539Y-101099137D01*
X131553999Y-101053358D01*
X131553999Y-100956641D01*
X131571592Y-100908303D01*
X131576012Y-100903479D01*
X131907792Y-100571699D01*
X131954409Y-100549962D01*
X132004096Y-100563276D01*
X132033601Y-100605413D01*
X132034085Y-100607321D01*
X132088370Y-100833430D01*
X132088373Y-100833441D01*
X132179207Y-101052734D01*
X132293897Y-101239892D01*
X133042638Y-100491150D01*
X133067507Y-100575844D01*
X133145239Y-100696798D01*
X133253900Y-100790952D01*
X133384685Y-100850680D01*
X133399411Y-100852797D01*
X132653106Y-101599101D01*
X132840265Y-101713792D01*
X133059558Y-101804626D01*
X133059569Y-101804629D01*
X133290359Y-101860038D01*
X133290369Y-101860040D01*
X133526997Y-101878663D01*
X133527003Y-101878663D01*
X133763630Y-101860040D01*
X133763640Y-101860038D01*
X133994430Y-101804629D01*
X133994441Y-101804626D01*
X134213736Y-101713791D01*
X134213742Y-101713788D01*
X134400891Y-101599102D01*
X134400892Y-101599101D01*
X133654588Y-100852797D01*
X133669315Y-100850680D01*
X133800100Y-100790952D01*
X133908761Y-100696798D01*
X133986493Y-100575844D01*
X134011360Y-100491151D01*
X134760101Y-101239892D01*
X134760102Y-101239891D01*
X134874788Y-101052742D01*
X134874791Y-101052736D01*
X134965626Y-100833441D01*
X134965629Y-100833430D01*
X135021038Y-100602640D01*
X135021040Y-100602630D01*
X135039663Y-100366002D01*
X135039663Y-100365997D01*
X135027684Y-100213797D01*
X135041430Y-100164228D01*
X135083823Y-100135092D01*
X135135026Y-100140022D01*
X135152869Y-100152633D01*
X135153080Y-100152382D01*
X135155594Y-100154491D01*
X135155597Y-100154493D01*
X135155599Y-100154495D01*
X135349170Y-100290035D01*
X135349172Y-100290035D01*
X135349175Y-100290038D01*
X135512073Y-100365998D01*
X135563337Y-100389903D01*
X135791592Y-100451063D01*
X136027000Y-100471659D01*
X136262408Y-100451063D01*
X136490663Y-100389903D01*
X136704830Y-100290035D01*
X136898401Y-100154495D01*
X137065495Y-99987401D01*
X137201035Y-99793830D01*
X137300903Y-99579663D01*
X137362063Y-99351408D01*
X137382659Y-99116000D01*
X137362063Y-98880592D01*
X137300903Y-98652337D01*
X137204097Y-98444737D01*
X137201038Y-98438176D01*
X137201035Y-98438173D01*
X137201035Y-98438171D01*
X137065495Y-98244599D01*
X137065494Y-98244598D01*
X137065492Y-98244595D01*
X136898404Y-98077507D01*
X136822965Y-98024684D01*
X136704830Y-97941965D01*
X136704829Y-97941964D01*
X136704824Y-97941961D01*
X136490666Y-97842098D01*
X136490663Y-97842097D01*
X136262408Y-97780937D01*
X136262406Y-97780936D01*
X136262403Y-97780936D01*
X136058682Y-97763112D01*
X136027000Y-97760341D01*
X136026999Y-97760341D01*
X135791596Y-97780936D01*
X135563337Y-97842097D01*
X135563333Y-97842098D01*
X135349176Y-97941961D01*
X135155595Y-98077507D01*
X134988507Y-98244595D01*
X134852961Y-98438176D01*
X134753098Y-98652333D01*
X134753097Y-98652337D01*
X134693949Y-98873085D01*
X134691936Y-98880596D01*
X134671341Y-99116000D01*
X134691936Y-99351403D01*
X134691936Y-99351404D01*
X134724837Y-99474199D01*
X134720353Y-99525443D01*
X134705373Y-99546835D01*
X134011360Y-100240847D01*
X133986493Y-100156156D01*
X133908761Y-100035202D01*
X133800100Y-99941048D01*
X133669315Y-99881320D01*
X133654586Y-99879202D01*
X134400892Y-99132897D01*
X134213734Y-99018207D01*
X133994441Y-98927373D01*
X133994430Y-98927370D01*
X133768320Y-98873085D01*
X133725425Y-98844693D01*
X133710815Y-98795372D01*
X133731327Y-98748199D01*
X133732624Y-98746867D01*
X136577127Y-95902364D01*
X136623746Y-95880625D01*
X136673433Y-95893939D01*
G37*
G04 #@! TD.AperFunction*
G04 #@! TA.AperFunction,Conductor*
G36*
X141869874Y-100235665D02*
G01*
X141891614Y-100282285D01*
X141891900Y-100288839D01*
X141891900Y-104756728D01*
X141874307Y-104805066D01*
X141829758Y-104830786D01*
X141779100Y-104821853D01*
X141766038Y-104812301D01*
X141675503Y-104729767D01*
X141491827Y-104616040D01*
X141491824Y-104616039D01*
X141491823Y-104616038D01*
X141290376Y-104537996D01*
X141290378Y-104537996D01*
X141229702Y-104526654D01*
X141078018Y-104498300D01*
X140861982Y-104498300D01*
X140720409Y-104524764D01*
X140649622Y-104537996D01*
X140448172Y-104616040D01*
X140264496Y-104729767D01*
X140131162Y-104851319D01*
X140083588Y-104870883D01*
X140034568Y-104855289D01*
X140007041Y-104811834D01*
X140005300Y-104795746D01*
X140005300Y-101030064D01*
X140022893Y-100981726D01*
X140067442Y-100956006D01*
X140085865Y-100955056D01*
X140334994Y-100972874D01*
X140335006Y-100972874D01*
X140607215Y-100953405D01*
X140607238Y-100953402D01*
X140873908Y-100895392D01*
X141129642Y-100800008D01*
X141369175Y-100669213D01*
X141492605Y-100576814D01*
X140839487Y-99923697D01*
X140909214Y-99884996D01*
X141063531Y-99752520D01*
X141188021Y-99591692D01*
X141200487Y-99566278D01*
X141869874Y-100235665D01*
G37*
G04 #@! TD.AperFunction*
G04 #@! TA.AperFunction,Conductor*
G36*
X140971634Y-76548243D02*
G01*
X141123534Y-76561532D01*
X141136436Y-76563807D01*
X141278956Y-76601995D01*
X141291274Y-76606479D01*
X141424986Y-76668830D01*
X141436338Y-76675384D01*
X141557198Y-76760011D01*
X141567239Y-76768437D01*
X141671562Y-76872760D01*
X141679988Y-76882801D01*
X141764615Y-77003661D01*
X141771169Y-77015013D01*
X141833520Y-77148725D01*
X141838004Y-77161043D01*
X141876191Y-77303560D01*
X141878467Y-77316469D01*
X141891757Y-77468365D01*
X141891900Y-77471644D01*
X141891900Y-81763638D01*
X141874307Y-81811976D01*
X141829758Y-81837696D01*
X141779100Y-81828763D01*
X141760249Y-81813321D01*
X141656620Y-81695575D01*
X141656618Y-81695573D01*
X141656617Y-81695572D01*
X141477234Y-81550730D01*
X141477229Y-81550727D01*
X141477228Y-81550726D01*
X141275937Y-81438279D01*
X141275931Y-81438276D01*
X141058542Y-81361467D01*
X140831287Y-81322500D01*
X140831285Y-81322500D01*
X140658465Y-81322500D01*
X140585185Y-81328737D01*
X140486266Y-81337156D01*
X140486263Y-81337156D01*
X140486261Y-81337157D01*
X140392897Y-81361467D01*
X140263130Y-81395255D01*
X140053031Y-81490224D01*
X140053028Y-81490226D01*
X139862000Y-81619340D01*
X139695541Y-81778877D01*
X139695535Y-81778884D01*
X139558435Y-81964256D01*
X139558429Y-81964266D01*
X139454633Y-82170133D01*
X139454629Y-82170141D01*
X139387114Y-82390602D01*
X139357828Y-82619306D01*
X139367613Y-82849663D01*
X139367613Y-82849665D01*
X139416189Y-83075061D01*
X139502157Y-83289003D01*
X139502161Y-83289010D01*
X139564179Y-83389733D01*
X139623049Y-83485343D01*
X139775380Y-83658425D01*
X139775382Y-83658427D01*
X139954765Y-83803269D01*
X139954768Y-83803270D01*
X139954772Y-83803274D01*
X140156063Y-83915721D01*
X140156066Y-83915722D01*
X140156068Y-83915723D01*
X140373458Y-83992532D01*
X140373460Y-83992532D01*
X140373462Y-83992533D01*
X140395916Y-83996383D01*
X140440585Y-84021892D01*
X140458407Y-84070146D01*
X140441042Y-84118566D01*
X140422796Y-84134437D01*
X140303956Y-84208020D01*
X140153235Y-84345421D01*
X140153232Y-84345424D01*
X140030324Y-84508182D01*
X139939418Y-84690748D01*
X139939416Y-84690752D01*
X139883603Y-84886912D01*
X139864785Y-85089997D01*
X139864785Y-85090002D01*
X139883603Y-85293083D01*
X139883604Y-85293088D01*
X139924792Y-85437847D01*
X139921099Y-85489154D01*
X139905637Y-85511601D01*
X138352774Y-87064463D01*
X138306154Y-87086203D01*
X138256467Y-87072889D01*
X138233849Y-87047784D01*
X138199746Y-86986342D01*
X138154159Y-86904209D01*
X138138032Y-86885424D01*
X138090458Y-86830007D01*
X138028240Y-86757532D01*
X137983439Y-86722853D01*
X137875376Y-86639205D01*
X137793531Y-86599058D01*
X137701816Y-86554070D01*
X137680436Y-86548534D01*
X137514680Y-86505616D01*
X137514675Y-86505615D01*
X137514674Y-86505615D01*
X137514672Y-86505614D01*
X137514666Y-86505614D01*
X137321616Y-86495823D01*
X137321615Y-86495823D01*
X137257691Y-86505616D01*
X137130526Y-86525097D01*
X136991072Y-86576745D01*
X136949244Y-86592237D01*
X136785196Y-86694488D01*
X136785186Y-86694496D01*
X136645083Y-86827673D01*
X136645078Y-86827679D01*
X136534646Y-86986342D01*
X136458413Y-87163986D01*
X136458413Y-87163987D01*
X136449975Y-87205048D01*
X136422907Y-87336768D01*
X136419500Y-87353345D01*
X136419500Y-87998207D01*
X136434155Y-88142322D01*
X136434155Y-88142323D01*
X136492024Y-88326764D01*
X136492025Y-88326767D01*
X136492026Y-88326768D01*
X136566942Y-88461742D01*
X136585843Y-88495794D01*
X136615258Y-88530058D01*
X136711760Y-88642468D01*
X136770337Y-88687810D01*
X136864623Y-88760794D01*
X136864626Y-88760795D01*
X136864627Y-88760796D01*
X137038184Y-88845930D01*
X137225326Y-88894385D01*
X137280562Y-88897186D01*
X137373282Y-88901889D01*
X137420666Y-88921908D01*
X137444097Y-88967702D01*
X137432610Y-89017842D01*
X137422647Y-89030166D01*
X136884165Y-89568649D01*
X136881019Y-89571461D01*
X136849067Y-89596941D01*
X136815260Y-89646525D01*
X136779629Y-89694805D01*
X136776998Y-89699784D01*
X136776950Y-89699758D01*
X136774278Y-89705051D01*
X136774327Y-89705075D01*
X136771882Y-89710151D01*
X136754196Y-89767491D01*
X136734377Y-89824128D01*
X136733331Y-89829659D01*
X136733279Y-89829649D01*
X136732286Y-89835493D01*
X136732339Y-89835501D01*
X136730660Y-89846643D01*
X136729020Y-89846395D01*
X136713907Y-89887921D01*
X136669358Y-89913641D01*
X136618700Y-89904708D01*
X136610523Y-89899244D01*
X136609766Y-89898663D01*
X136609759Y-89898659D01*
X136463683Y-89838152D01*
X136306920Y-89817514D01*
X136150156Y-89838152D01*
X136004080Y-89898659D01*
X136004077Y-89898661D01*
X135878637Y-89994913D01*
X135782385Y-90120353D01*
X135782383Y-90120356D01*
X135721875Y-90266435D01*
X135710189Y-90355189D01*
X135688807Y-90398546D01*
X135150665Y-90936689D01*
X135147519Y-90939501D01*
X135115567Y-90964981D01*
X135081760Y-91014565D01*
X135046129Y-91062845D01*
X135043498Y-91067824D01*
X135043450Y-91067798D01*
X135040778Y-91073091D01*
X135040827Y-91073115D01*
X135038382Y-91078191D01*
X135020696Y-91135531D01*
X135000877Y-91192168D01*
X134999831Y-91197699D01*
X134999779Y-91197689D01*
X134998786Y-91203533D01*
X134998839Y-91203541D01*
X134998000Y-91209108D01*
X134998000Y-91269107D01*
X134995755Y-91329078D01*
X134996387Y-91334681D01*
X134996332Y-91334687D01*
X134998000Y-91347353D01*
X134998000Y-95163560D01*
X134980407Y-95211898D01*
X134975974Y-95216734D01*
X130936188Y-99256519D01*
X130889568Y-99278259D01*
X130839881Y-99264945D01*
X130810376Y-99222808D01*
X130808006Y-99197980D01*
X130817874Y-99060005D01*
X130817874Y-99059994D01*
X130798405Y-98787784D01*
X130798402Y-98787761D01*
X130740392Y-98521091D01*
X130645008Y-98265357D01*
X130514213Y-98025824D01*
X130421814Y-97902394D01*
X129768822Y-98555386D01*
X129699854Y-98444737D01*
X129559732Y-98297329D01*
X129411578Y-98194210D01*
X130062605Y-97543184D01*
X129939175Y-97450786D01*
X129699642Y-97319991D01*
X129443908Y-97224607D01*
X129177238Y-97166597D01*
X129177215Y-97166594D01*
X128905006Y-97147126D01*
X128904994Y-97147126D01*
X128632784Y-97166594D01*
X128632761Y-97166597D01*
X128366091Y-97224607D01*
X128110357Y-97319991D01*
X127870824Y-97450786D01*
X127747393Y-97543184D01*
X128400512Y-98196302D01*
X128330786Y-98235004D01*
X128176469Y-98367480D01*
X128051979Y-98528308D01*
X128039512Y-98553722D01*
X127370126Y-97884335D01*
X127348386Y-97837715D01*
X127348100Y-97831161D01*
X127348100Y-96069046D01*
X127365693Y-96020708D01*
X127410242Y-95994988D01*
X127460900Y-96003921D01*
X127473962Y-96013473D01*
X127603956Y-96131979D01*
X127777359Y-96239346D01*
X127777361Y-96239346D01*
X127777363Y-96239348D01*
X127967544Y-96313024D01*
X128168024Y-96350500D01*
X128168029Y-96350500D01*
X128371971Y-96350500D01*
X128371976Y-96350500D01*
X128572456Y-96313024D01*
X128762637Y-96239348D01*
X128936041Y-96131981D01*
X129067654Y-96012000D01*
X129804659Y-96012000D01*
X129823975Y-96208128D01*
X129823975Y-96208130D01*
X129823976Y-96208132D01*
X129867163Y-96350500D01*
X129881188Y-96396732D01*
X129974087Y-96570533D01*
X129974091Y-96570539D01*
X130099116Y-96722883D01*
X130178905Y-96788364D01*
X130251462Y-96847910D01*
X130425273Y-96940814D01*
X130613868Y-96998024D01*
X130810000Y-97017341D01*
X131006132Y-96998024D01*
X131194727Y-96940814D01*
X131368538Y-96847910D01*
X131520883Y-96722883D01*
X131645910Y-96570538D01*
X131738814Y-96396727D01*
X131796024Y-96208132D01*
X131815341Y-96012000D01*
X131796024Y-95815868D01*
X131738814Y-95627273D01*
X131645910Y-95453462D01*
X131522570Y-95303172D01*
X131520883Y-95301116D01*
X131368539Y-95176091D01*
X131368540Y-95176091D01*
X131368538Y-95176090D01*
X131368535Y-95176088D01*
X131368533Y-95176087D01*
X131194732Y-95083188D01*
X131194729Y-95083187D01*
X131194727Y-95083186D01*
X131006132Y-95025976D01*
X131006127Y-95025975D01*
X131006130Y-95025975D01*
X130810000Y-95006659D01*
X130613871Y-95025975D01*
X130613867Y-95025976D01*
X130613868Y-95025976D01*
X130425273Y-95083186D01*
X130425272Y-95083186D01*
X130425267Y-95083188D01*
X130251466Y-95176087D01*
X130251460Y-95176091D01*
X130099116Y-95301116D01*
X129974091Y-95453460D01*
X129974087Y-95453466D01*
X129881188Y-95627267D01*
X129823975Y-95815871D01*
X129804659Y-96012000D01*
X129067654Y-96012000D01*
X129086764Y-95994579D01*
X129209673Y-95831821D01*
X129300582Y-95649250D01*
X129356397Y-95453083D01*
X129375215Y-95250000D01*
X129374309Y-95240226D01*
X129359758Y-95083188D01*
X129356397Y-95046917D01*
X129350439Y-95025976D01*
X129300583Y-94850752D01*
X129300581Y-94850748D01*
X129209675Y-94668182D01*
X129086767Y-94505424D01*
X129086764Y-94505421D01*
X128936043Y-94368020D01*
X128762640Y-94260653D01*
X128572457Y-94186976D01*
X128539042Y-94180730D01*
X128371976Y-94149500D01*
X128168024Y-94149500D01*
X128034370Y-94174484D01*
X127967542Y-94186976D01*
X127777360Y-94260653D01*
X127777359Y-94260653D01*
X127603956Y-94368020D01*
X127473962Y-94486526D01*
X127426387Y-94506090D01*
X127377368Y-94490495D01*
X127349841Y-94447041D01*
X127348100Y-94430953D01*
X127348100Y-93529046D01*
X127365693Y-93480708D01*
X127410242Y-93454988D01*
X127460900Y-93463921D01*
X127473962Y-93473473D01*
X127603956Y-93591979D01*
X127777359Y-93699346D01*
X127777361Y-93699346D01*
X127777363Y-93699348D01*
X127967544Y-93773024D01*
X128168024Y-93810500D01*
X128168029Y-93810500D01*
X128371971Y-93810500D01*
X128371976Y-93810500D01*
X128488340Y-93788748D01*
X129819500Y-93788748D01*
X129831132Y-93847229D01*
X129831133Y-93847231D01*
X129875448Y-93913552D01*
X129941769Y-93957867D01*
X129971010Y-93963683D01*
X130000251Y-93969500D01*
X130000252Y-93969500D01*
X131639749Y-93969500D01*
X131661471Y-93965179D01*
X131698231Y-93957867D01*
X131764552Y-93913552D01*
X131808867Y-93847231D01*
X131820500Y-93788748D01*
X131820500Y-92149252D01*
X131808867Y-92090769D01*
X131764552Y-92024448D01*
X131698231Y-91980133D01*
X131698229Y-91980132D01*
X131639749Y-91968500D01*
X131639748Y-91968500D01*
X130000252Y-91968500D01*
X130000251Y-91968500D01*
X129941770Y-91980132D01*
X129941768Y-91980133D01*
X129875448Y-92024448D01*
X129831133Y-92090768D01*
X129831132Y-92090770D01*
X129819500Y-92149251D01*
X129819500Y-93788748D01*
X128488340Y-93788748D01*
X128572456Y-93773024D01*
X128762637Y-93699348D01*
X128936041Y-93591981D01*
X129086764Y-93454579D01*
X129209673Y-93291821D01*
X129300582Y-93109250D01*
X129356397Y-92913083D01*
X129375215Y-92710000D01*
X129356397Y-92506917D01*
X129337205Y-92439464D01*
X129300583Y-92310752D01*
X129300581Y-92310748D01*
X129209675Y-92128182D01*
X129086767Y-91965424D01*
X129086764Y-91965421D01*
X128936043Y-91828020D01*
X128762640Y-91720653D01*
X128572457Y-91646976D01*
X128539042Y-91640730D01*
X128371976Y-91609500D01*
X128168024Y-91609500D01*
X128034370Y-91634484D01*
X127967542Y-91646976D01*
X127777360Y-91720653D01*
X127777359Y-91720653D01*
X127603956Y-91828020D01*
X127473962Y-91946526D01*
X127426387Y-91966090D01*
X127377368Y-91950495D01*
X127349841Y-91907041D01*
X127348100Y-91890953D01*
X127348100Y-90989046D01*
X127365693Y-90940708D01*
X127410242Y-90914988D01*
X127460900Y-90923921D01*
X127473960Y-90933472D01*
X127504142Y-90960986D01*
X127603956Y-91051979D01*
X127777359Y-91159346D01*
X127777361Y-91159346D01*
X127777363Y-91159348D01*
X127967544Y-91233024D01*
X128168024Y-91270500D01*
X128168029Y-91270500D01*
X128371971Y-91270500D01*
X128371976Y-91270500D01*
X128572456Y-91233024D01*
X128762637Y-91159348D01*
X128936041Y-91051981D01*
X129086764Y-90914579D01*
X129209673Y-90751821D01*
X129243942Y-90683000D01*
X129533918Y-90683000D01*
X129586187Y-90878070D01*
X129586188Y-90878074D01*
X129682908Y-91085492D01*
X129814189Y-91272981D01*
X129976018Y-91434810D01*
X130163507Y-91566091D01*
X130370925Y-91662811D01*
X130370929Y-91662812D01*
X130566000Y-91715081D01*
X130566000Y-90740686D01*
X130581955Y-90756641D01*
X130694852Y-90814165D01*
X130788519Y-90829000D01*
X130851481Y-90829000D01*
X130945148Y-90814165D01*
X131058045Y-90756641D01*
X131073999Y-90740686D01*
X131073999Y-91715081D01*
X131269070Y-91662812D01*
X131269074Y-91662811D01*
X131476492Y-91566091D01*
X131663981Y-91434810D01*
X131825810Y-91272981D01*
X131957091Y-91085492D01*
X132053811Y-90878074D01*
X132053812Y-90878070D01*
X132106082Y-90683000D01*
X131131686Y-90683000D01*
X131147641Y-90667045D01*
X131205165Y-90554148D01*
X131224986Y-90429000D01*
X131205165Y-90303852D01*
X131147641Y-90190955D01*
X131131686Y-90175000D01*
X132106082Y-90175000D01*
X132053812Y-89979929D01*
X132053811Y-89979925D01*
X131957091Y-89772507D01*
X131825810Y-89585018D01*
X131663981Y-89423189D01*
X131491761Y-89302599D01*
X131462256Y-89260462D01*
X131466740Y-89209218D01*
X131503113Y-89172845D01*
X131551628Y-89167685D01*
X131616000Y-89182378D01*
X131616000Y-88381115D01*
X131660156Y-88409493D01*
X131798111Y-88450000D01*
X131941889Y-88450000D01*
X132079844Y-88409493D01*
X132123999Y-88381116D01*
X132123999Y-89185081D01*
X132151064Y-89181415D01*
X132151073Y-89181413D01*
X132366419Y-89111444D01*
X132565828Y-89004137D01*
X132565833Y-89004133D01*
X132742869Y-88862952D01*
X132891856Y-88692423D01*
X133007995Y-88498041D01*
X133007997Y-88498036D01*
X133087566Y-88286029D01*
X133127999Y-88063231D01*
X133128000Y-88063220D01*
X133128000Y-87954000D01*
X132370000Y-87954000D01*
X132370000Y-87446000D01*
X133128000Y-87446000D01*
X133128000Y-87393501D01*
X133127999Y-87393483D01*
X133112788Y-87224474D01*
X133112787Y-87224470D01*
X133052543Y-87006184D01*
X132954295Y-86802166D01*
X132821195Y-86618969D01*
X132657522Y-86462480D01*
X132468539Y-86337734D01*
X132260314Y-86248734D01*
X132124000Y-86217620D01*
X132124000Y-87018884D01*
X132079844Y-86990507D01*
X131941889Y-86950000D01*
X131798111Y-86950000D01*
X131660156Y-86990507D01*
X131616000Y-87018884D01*
X131616000Y-86214916D01*
X131588946Y-86218581D01*
X131588926Y-86218585D01*
X131373580Y-86288555D01*
X131174171Y-86395862D01*
X131174166Y-86395866D01*
X130997130Y-86537047D01*
X130848143Y-86707576D01*
X130732004Y-86901958D01*
X130732002Y-86901963D01*
X130652433Y-87113970D01*
X130612000Y-87336768D01*
X130612000Y-87446000D01*
X131370000Y-87446000D01*
X131370000Y-87954000D01*
X130612000Y-87954000D01*
X130612000Y-88006516D01*
X130627211Y-88175525D01*
X130627212Y-88175529D01*
X130687456Y-88393815D01*
X130785704Y-88597833D01*
X130918804Y-88781030D01*
X131082477Y-88937519D01*
X131225171Y-89031710D01*
X131255821Y-89073022D01*
X131252744Y-89124370D01*
X131217382Y-89161727D01*
X131166280Y-89167614D01*
X131164281Y-89167108D01*
X131073999Y-89142917D01*
X131073999Y-90117313D01*
X131058045Y-90101359D01*
X130945148Y-90043835D01*
X130851481Y-90029000D01*
X130788519Y-90029000D01*
X130694852Y-90043835D01*
X130581955Y-90101359D01*
X130565999Y-90117314D01*
X130566000Y-89142917D01*
X130565999Y-89142917D01*
X130370929Y-89195186D01*
X130370925Y-89195188D01*
X130163507Y-89291908D01*
X129976018Y-89423189D01*
X129814189Y-89585018D01*
X129682908Y-89772507D01*
X129586188Y-89979925D01*
X129586187Y-89979929D01*
X129533918Y-90175000D01*
X130508314Y-90175000D01*
X130492359Y-90190955D01*
X130434835Y-90303852D01*
X130415014Y-90429000D01*
X130434835Y-90554148D01*
X130492359Y-90667045D01*
X130508314Y-90683000D01*
X129533918Y-90683000D01*
X129243942Y-90683000D01*
X129300582Y-90569250D01*
X129356397Y-90373083D01*
X129375215Y-90170000D01*
X129356397Y-89966917D01*
X129354725Y-89961039D01*
X129300583Y-89770752D01*
X129300581Y-89770748D01*
X129209675Y-89588182D01*
X129194924Y-89568649D01*
X129169500Y-89534981D01*
X129086767Y-89425424D01*
X129086764Y-89425421D01*
X128936043Y-89288020D01*
X128762640Y-89180653D01*
X128638358Y-89132506D01*
X128599640Y-89098639D01*
X128591749Y-89047808D01*
X128618378Y-89003797D01*
X128641106Y-88991258D01*
X128837525Y-88923828D01*
X129042744Y-88812769D01*
X129071317Y-88790529D01*
X129071317Y-88790527D01*
X128397588Y-88116797D01*
X128412315Y-88114680D01*
X128543100Y-88054952D01*
X128651761Y-87960798D01*
X128729493Y-87839844D01*
X128754361Y-87755150D01*
X129429202Y-88429991D01*
X129512544Y-88302428D01*
X129606272Y-88088750D01*
X129606273Y-88088746D01*
X129663557Y-87862540D01*
X129682826Y-87630001D01*
X129682826Y-87629998D01*
X129663557Y-87397459D01*
X129606273Y-87171253D01*
X129606272Y-87171249D01*
X129512543Y-86957570D01*
X129512541Y-86957566D01*
X129429203Y-86830007D01*
X129429202Y-86830007D01*
X128754360Y-87504848D01*
X128729493Y-87420156D01*
X128651761Y-87299202D01*
X128543100Y-87205048D01*
X128412315Y-87145320D01*
X128397587Y-87143202D01*
X129071317Y-86469471D01*
X129071317Y-86469469D01*
X129042745Y-86447230D01*
X128837522Y-86336170D01*
X128837518Y-86336168D01*
X128641106Y-86268740D01*
X128601100Y-86236405D01*
X128591238Y-86185919D01*
X128616135Y-86140906D01*
X128638355Y-86127494D01*
X128762637Y-86079348D01*
X128936041Y-85971981D01*
X129086764Y-85834579D01*
X129209673Y-85671821D01*
X129300582Y-85489250D01*
X129303114Y-85480353D01*
X129356396Y-85293087D01*
X129356396Y-85293086D01*
X129356397Y-85293083D01*
X129375215Y-85090000D01*
X129356397Y-84886917D01*
X129300582Y-84690750D01*
X129299846Y-84689272D01*
X129209675Y-84508182D01*
X129086767Y-84345424D01*
X129086764Y-84345421D01*
X128936043Y-84208020D01*
X128814038Y-84132477D01*
X128782202Y-84092072D01*
X128783787Y-84040657D01*
X128818050Y-84002289D01*
X128834668Y-83995770D01*
X128976869Y-83958745D01*
X129106803Y-83900011D01*
X129186968Y-83863775D01*
X129186971Y-83863773D01*
X129205480Y-83851263D01*
X129378000Y-83734659D01*
X129544462Y-83575119D01*
X129681566Y-83389742D01*
X129785370Y-83183860D01*
X129852886Y-82963397D01*
X129882172Y-82734694D01*
X129880975Y-82706516D01*
X134862000Y-82706516D01*
X134877211Y-82875525D01*
X134877212Y-82875529D01*
X134937456Y-83093815D01*
X135035704Y-83297833D01*
X135168804Y-83481030D01*
X135332477Y-83637519D01*
X135521460Y-83762265D01*
X135729679Y-83851263D01*
X135866000Y-83882377D01*
X135866000Y-83081115D01*
X135910156Y-83109493D01*
X136048111Y-83150000D01*
X136191889Y-83150000D01*
X136329844Y-83109493D01*
X136374000Y-83081115D01*
X136374000Y-83885081D01*
X136401064Y-83881415D01*
X136401073Y-83881413D01*
X136616419Y-83811444D01*
X136815828Y-83704137D01*
X136815833Y-83704133D01*
X136992869Y-83562952D01*
X137141856Y-83392423D01*
X137257995Y-83198041D01*
X137257997Y-83198036D01*
X137337566Y-82986029D01*
X137377999Y-82763231D01*
X137378000Y-82763220D01*
X137378000Y-82654000D01*
X136620000Y-82654000D01*
X136620000Y-82146000D01*
X137378000Y-82146000D01*
X137378000Y-82093501D01*
X137377999Y-82093483D01*
X137362788Y-81924474D01*
X137362787Y-81924470D01*
X137302543Y-81706184D01*
X137204295Y-81502166D01*
X137071195Y-81318969D01*
X136907522Y-81162480D01*
X136718539Y-81037734D01*
X136510314Y-80948734D01*
X136374000Y-80917620D01*
X136374000Y-81718884D01*
X136329844Y-81690507D01*
X136191889Y-81650000D01*
X136048111Y-81650000D01*
X135910156Y-81690507D01*
X135866000Y-81718884D01*
X135866000Y-80914916D01*
X135838946Y-80918581D01*
X135838926Y-80918585D01*
X135623580Y-80988555D01*
X135424171Y-81095862D01*
X135424166Y-81095866D01*
X135247130Y-81237047D01*
X135098143Y-81407576D01*
X134982004Y-81601958D01*
X134982002Y-81601963D01*
X134902433Y-81813970D01*
X134862000Y-82036768D01*
X134862000Y-82146000D01*
X135620000Y-82146000D01*
X135620000Y-82654000D01*
X134862000Y-82654000D01*
X134862000Y-82706516D01*
X129880975Y-82706516D01*
X129872386Y-82504332D01*
X129823810Y-82278938D01*
X129737841Y-82064994D01*
X129616951Y-81868657D01*
X129464620Y-81695575D01*
X129464618Y-81695573D01*
X129464617Y-81695572D01*
X129285234Y-81550730D01*
X129285229Y-81550727D01*
X129285228Y-81550726D01*
X129083937Y-81438279D01*
X129083931Y-81438276D01*
X128866542Y-81361467D01*
X128639287Y-81322500D01*
X128639285Y-81322500D01*
X128466465Y-81322500D01*
X128393185Y-81328737D01*
X128294266Y-81337156D01*
X128294263Y-81337156D01*
X128294261Y-81337157D01*
X128200897Y-81361467D01*
X128071130Y-81395255D01*
X127861031Y-81490224D01*
X127861028Y-81490226D01*
X127670000Y-81619340D01*
X127503541Y-81778877D01*
X127503533Y-81778886D01*
X127483760Y-81805622D01*
X127440872Y-81834023D01*
X127389762Y-81828212D01*
X127354344Y-81790907D01*
X127348100Y-81760905D01*
X127348100Y-77471643D01*
X127348243Y-77468365D01*
X127361532Y-77316469D01*
X127363806Y-77303565D01*
X127401996Y-77161040D01*
X127406479Y-77148725D01*
X127468830Y-77015013D01*
X127475384Y-77003661D01*
X127560016Y-76882794D01*
X127568431Y-76872766D01*
X127672766Y-76768431D01*
X127682794Y-76760016D01*
X127803664Y-76675381D01*
X127815009Y-76668832D01*
X127948729Y-76606477D01*
X127961040Y-76601996D01*
X128103565Y-76563806D01*
X128116463Y-76561532D01*
X128268365Y-76548243D01*
X128271644Y-76548100D01*
X128325134Y-76548100D01*
X140914866Y-76548100D01*
X140968356Y-76548100D01*
X140971634Y-76548243D01*
G37*
G04 #@! TD.AperFunction*
G04 #@! TA.AperFunction,Conductor*
G36*
X141862632Y-93469503D02*
G01*
X141890159Y-93512958D01*
X141891900Y-93529046D01*
X141891900Y-94430953D01*
X141874307Y-94479291D01*
X141829758Y-94505011D01*
X141779100Y-94496078D01*
X141766038Y-94486526D01*
X141636043Y-94368020D01*
X141462640Y-94260653D01*
X141272457Y-94186976D01*
X141239042Y-94180730D01*
X141071976Y-94149500D01*
X140868024Y-94149500D01*
X140734370Y-94174484D01*
X140667542Y-94186976D01*
X140477360Y-94260653D01*
X140477359Y-94260653D01*
X140303956Y-94368020D01*
X140153235Y-94505421D01*
X140153232Y-94505424D01*
X140030324Y-94668182D01*
X139939418Y-94850748D01*
X139939416Y-94850752D01*
X139883603Y-95046912D01*
X139864785Y-95249997D01*
X139864785Y-95250002D01*
X139883603Y-95453087D01*
X139939416Y-95649247D01*
X139939418Y-95649251D01*
X140030324Y-95831817D01*
X140153232Y-95994575D01*
X140153235Y-95994578D01*
X140303956Y-96131979D01*
X140477359Y-96239346D01*
X140477361Y-96239346D01*
X140477363Y-96239348D01*
X140667544Y-96313024D01*
X140868024Y-96350500D01*
X140868029Y-96350500D01*
X141071971Y-96350500D01*
X141071976Y-96350500D01*
X141272456Y-96313024D01*
X141462637Y-96239348D01*
X141636041Y-96131981D01*
X141766038Y-96013472D01*
X141813612Y-95993909D01*
X141862632Y-96009503D01*
X141890159Y-96052958D01*
X141891900Y-96069046D01*
X141891900Y-97831160D01*
X141874307Y-97879498D01*
X141869874Y-97884334D01*
X141198821Y-98555385D01*
X141129854Y-98444737D01*
X140989732Y-98297329D01*
X140841578Y-98194210D01*
X141492605Y-97543184D01*
X141369175Y-97450786D01*
X141129642Y-97319991D01*
X140873908Y-97224607D01*
X140607238Y-97166597D01*
X140607215Y-97166594D01*
X140335006Y-97147126D01*
X140334994Y-97147126D01*
X140062784Y-97166594D01*
X140062761Y-97166597D01*
X139796091Y-97224607D01*
X139540357Y-97319991D01*
X139300824Y-97450786D01*
X139177394Y-97543184D01*
X139830512Y-98196302D01*
X139760786Y-98235004D01*
X139606469Y-98367480D01*
X139481979Y-98528308D01*
X139469512Y-98553722D01*
X138957526Y-98041735D01*
X138935786Y-97995115D01*
X138935500Y-97988561D01*
X138935500Y-97864064D01*
X138935737Y-97859851D01*
X138938231Y-97837715D01*
X138940313Y-97819238D01*
X138929156Y-97760275D01*
X138920214Y-97700945D01*
X138920211Y-97700939D01*
X138918552Y-97695559D01*
X138918606Y-97695542D01*
X138916755Y-97689919D01*
X138916703Y-97689938D01*
X138914842Y-97684620D01*
X138914841Y-97684618D01*
X138914841Y-97684617D01*
X138886802Y-97631565D01*
X138860767Y-97577503D01*
X138860763Y-97577498D01*
X138857590Y-97572844D01*
X138857636Y-97572812D01*
X138854211Y-97567984D01*
X138854166Y-97568018D01*
X138850817Y-97563480D01*
X138808389Y-97521053D01*
X138767573Y-97477063D01*
X138763171Y-97473553D01*
X138763205Y-97473510D01*
X138753066Y-97465730D01*
X138428341Y-97141005D01*
X138406601Y-97094385D01*
X138419915Y-97044698D01*
X138462052Y-97015193D01*
X138474140Y-97012993D01*
X138626132Y-96998024D01*
X138814727Y-96940814D01*
X138988538Y-96847910D01*
X139140883Y-96722883D01*
X139265910Y-96570538D01*
X139358814Y-96396727D01*
X139416024Y-96208132D01*
X139435341Y-96012000D01*
X139416024Y-95815868D01*
X139358814Y-95627273D01*
X139265910Y-95453462D01*
X139142570Y-95303172D01*
X139140883Y-95301116D01*
X138988539Y-95176091D01*
X138988540Y-95176091D01*
X138988538Y-95176090D01*
X138988535Y-95176088D01*
X138988533Y-95176087D01*
X138814732Y-95083188D01*
X138814729Y-95083187D01*
X138814727Y-95083186D01*
X138626132Y-95025976D01*
X138626127Y-95025975D01*
X138626130Y-95025975D01*
X138430000Y-95006659D01*
X138233871Y-95025975D01*
X138233867Y-95025976D01*
X138233868Y-95025976D01*
X138045273Y-95083186D01*
X138045272Y-95083186D01*
X138045267Y-95083188D01*
X137871466Y-95176087D01*
X137871454Y-95176095D01*
X137737406Y-95286106D01*
X137688880Y-95303172D01*
X137640737Y-95285052D01*
X137615504Y-95240226D01*
X137614500Y-95227976D01*
X137614500Y-93744816D01*
X137632093Y-93696478D01*
X137676642Y-93670758D01*
X137727300Y-93679691D01*
X137737403Y-93686683D01*
X137881462Y-93804910D01*
X138055273Y-93897814D01*
X138243868Y-93955024D01*
X138440000Y-93974341D01*
X138636132Y-93955024D01*
X138824727Y-93897814D01*
X138998538Y-93804910D01*
X139055687Y-93758008D01*
X139104212Y-93740942D01*
X139152355Y-93759061D01*
X139172869Y-93787360D01*
X139194564Y-93839736D01*
X139194566Y-93839739D01*
X139290818Y-93965179D01*
X139368902Y-94025094D01*
X139416260Y-94061433D01*
X139562339Y-94121941D01*
X139719101Y-94142579D01*
X139875863Y-94121941D01*
X140021942Y-94061433D01*
X140147383Y-93965179D01*
X140243637Y-93839738D01*
X140303774Y-93694553D01*
X140338525Y-93656629D01*
X140389525Y-93649914D01*
X140412837Y-93659396D01*
X140477359Y-93699346D01*
X140477361Y-93699346D01*
X140477363Y-93699348D01*
X140667544Y-93773024D01*
X140868024Y-93810500D01*
X140868029Y-93810500D01*
X141071971Y-93810500D01*
X141071976Y-93810500D01*
X141272456Y-93773024D01*
X141462637Y-93699348D01*
X141636041Y-93591981D01*
X141766038Y-93473472D01*
X141813612Y-93453909D01*
X141862632Y-93469503D01*
G37*
G04 #@! TD.AperFunction*
M02*
