G04 #@! TF.GenerationSoftware,KiCad,Pcbnew,7.0.6*
G04 #@! TF.CreationDate,2023-09-07T09:30:41-03:00*
G04 #@! TF.ProjectId,Lift Switch,4c696674-2053-4776-9974-63682e6b6963,rev?*
G04 #@! TF.SameCoordinates,Original*
G04 #@! TF.FileFunction,Copper,L1,Top*
G04 #@! TF.FilePolarity,Positive*
%FSLAX46Y46*%
G04 Gerber Fmt 4.6, Leading zero omitted, Abs format (unit mm)*
G04 Created by KiCad (PCBNEW 7.0.6) date 2023-09-07 09:30:41*
%MOMM*%
%LPD*%
G01*
G04 APERTURE LIST*
G04 Aperture macros list*
%AMRoundRect*
0 Rectangle with rounded corners*
0 $1 Rounding radius*
0 $2 $3 $4 $5 $6 $7 $8 $9 X,Y pos of 4 corners*
0 Add a 4 corners polygon primitive as box body*
4,1,4,$2,$3,$4,$5,$6,$7,$8,$9,$2,$3,0*
0 Add four circle primitives for the rounded corners*
1,1,$1+$1,$2,$3*
1,1,$1+$1,$4,$5*
1,1,$1+$1,$6,$7*
1,1,$1+$1,$8,$9*
0 Add four rect primitives between the rounded corners*
20,1,$1+$1,$2,$3,$4,$5,0*
20,1,$1+$1,$4,$5,$6,$7,0*
20,1,$1+$1,$6,$7,$8,$9,0*
20,1,$1+$1,$8,$9,$2,$3,0*%
%AMOutline5P*
0 Free polygon, 5 corners , with rotation*
0 The origin of the aperture is its center*
0 number of corners: always 5*
0 $1 to $10 corner X, Y*
0 $11 Rotation angle, in degrees counterclockwise*
0 create outline with 5 corners*
4,1,5,$1,$2,$3,$4,$5,$6,$7,$8,$9,$10,$1,$2,$11*%
%AMOutline6P*
0 Free polygon, 6 corners , with rotation*
0 The origin of the aperture is its center*
0 number of corners: always 6*
0 $1 to $12 corner X, Y*
0 $13 Rotation angle, in degrees counterclockwise*
0 create outline with 6 corners*
4,1,6,$1,$2,$3,$4,$5,$6,$7,$8,$9,$10,$11,$12,$1,$2,$13*%
%AMOutline7P*
0 Free polygon, 7 corners , with rotation*
0 The origin of the aperture is its center*
0 number of corners: always 7*
0 $1 to $14 corner X, Y*
0 $15 Rotation angle, in degrees counterclockwise*
0 create outline with 7 corners*
4,1,7,$1,$2,$3,$4,$5,$6,$7,$8,$9,$10,$11,$12,$13,$14,$1,$2,$15*%
%AMOutline8P*
0 Free polygon, 8 corners , with rotation*
0 The origin of the aperture is its center*
0 number of corners: always 8*
0 $1 to $16 corner X, Y*
0 $17 Rotation angle, in degrees counterclockwise*
0 create outline with 8 corners*
4,1,8,$1,$2,$3,$4,$5,$6,$7,$8,$9,$10,$11,$12,$13,$14,$15,$16,$1,$2,$17*%
G04 Aperture macros list end*
G04 #@! TA.AperFunction,ComponentPad*
%ADD10C,1.930400*%
G04 #@! TD*
G04 #@! TA.AperFunction,ComponentPad*
%ADD11Outline8P,-0.965200X0.482600X-0.482600X0.965200X0.482600X0.965200X0.965200X0.482600X0.965200X-0.482600X0.482600X-0.965200X-0.482600X-0.965200X-0.965200X-0.482600X270.000000*%
G04 #@! TD*
G04 #@! TA.AperFunction,ComponentPad*
%ADD12C,1.778000*%
G04 #@! TD*
G04 #@! TA.AperFunction,ComponentPad*
%ADD13C,3.200000*%
G04 #@! TD*
G04 #@! TA.AperFunction,ComponentPad*
%ADD14C,1.800000*%
G04 #@! TD*
G04 #@! TA.AperFunction,ComponentPad*
%ADD15C,2.800000*%
G04 #@! TD*
G04 #@! TA.AperFunction,SMDPad,CuDef*
%ADD16RoundRect,0.250000X-1.000000X-0.250000X1.000000X-0.250000X1.000000X0.250000X-1.000000X0.250000X0*%
G04 #@! TD*
G04 #@! TA.AperFunction,ComponentPad*
%ADD17C,1.600000*%
G04 #@! TD*
G04 #@! TA.AperFunction,ComponentPad*
%ADD18O,1.600000X1.600000*%
G04 #@! TD*
G04 #@! TA.AperFunction,ComponentPad*
%ADD19R,1.600000X1.600000*%
G04 #@! TD*
G04 #@! TA.AperFunction,ComponentPad*
%ADD20O,2.000000X1.000000*%
G04 #@! TD*
G04 #@! TA.AperFunction,ComponentPad*
%ADD21C,2.000000*%
G04 #@! TD*
G04 #@! TA.AperFunction,ComponentPad*
%ADD22C,2.300000*%
G04 #@! TD*
G04 #@! TA.AperFunction,ComponentPad*
%ADD23O,1.500000X2.000000*%
G04 #@! TD*
G04 #@! TA.AperFunction,ViaPad*
%ADD24C,0.800000*%
G04 #@! TD*
G04 #@! TA.AperFunction,Conductor*
%ADD25C,0.508000*%
G04 #@! TD*
G04 #@! TA.AperFunction,Conductor*
%ADD26C,0.381000*%
G04 #@! TD*
G04 APERTURE END LIST*
D10*
X140970000Y-105664000D03*
X140970000Y-108204000D03*
D11*
X140970000Y-110744000D03*
D12*
X140970000Y-113284000D03*
X138430000Y-113284000D03*
D13*
X139700000Y-117094000D03*
D14*
X128270000Y-85090000D03*
X128270000Y-87630000D03*
X128270000Y-90170000D03*
X128270000Y-92710000D03*
X128270000Y-95250000D03*
X140970000Y-95250000D03*
X140970000Y-92710000D03*
X140970000Y-90170000D03*
X140970000Y-87630000D03*
X140970000Y-85090000D03*
D15*
X140335000Y-99060000D03*
X128905000Y-99060000D03*
D16*
X130650000Y-107744000D03*
X130650000Y-111744000D03*
X130650000Y-109744000D03*
D17*
X138430000Y-96012000D03*
D18*
X130810000Y-96012000D03*
D19*
X130820000Y-92969000D03*
D18*
X130820000Y-90429000D03*
X138440000Y-90429000D03*
X138440000Y-92969000D03*
D20*
X134620000Y-118924000D03*
X134620000Y-121424000D03*
X134620000Y-116424000D03*
D21*
X133527000Y-104866000D03*
X133527000Y-100366000D03*
D22*
X136027000Y-99116000D03*
X136027000Y-106116000D03*
D23*
X131870000Y-87700000D03*
X136120000Y-82400000D03*
X137370000Y-87700000D03*
D24*
X138176000Y-108458000D03*
X130683000Y-83820000D03*
X140716000Y-103886000D03*
X133096000Y-102616000D03*
X128397000Y-80391000D03*
X139065000Y-85217000D03*
X132080000Y-113284000D03*
X134620000Y-77597000D03*
X131191000Y-97790000D03*
X134275651Y-94160696D03*
X137160000Y-116586000D03*
X128524000Y-114173000D03*
X128651000Y-101600000D03*
X128905000Y-117856000D03*
X140716000Y-101473000D03*
X130175000Y-86487000D03*
X136271000Y-120269000D03*
X128397000Y-104902000D03*
X135382000Y-103886000D03*
X128397000Y-77597000D03*
X136271000Y-113030000D03*
X132969000Y-108331000D03*
X140843000Y-77724000D03*
X134493000Y-87503000D03*
X138811000Y-81534000D03*
X132842000Y-120269000D03*
X130355427Y-102140353D03*
X136306920Y-90423196D03*
X136306500Y-92964000D03*
X131099500Y-101473000D03*
X139719101Y-93536897D03*
D25*
X133074000Y-86951287D02*
X131212713Y-85090000D01*
X133074000Y-98762733D02*
X133074000Y-86951287D01*
X131953000Y-99883733D02*
X133074000Y-98762733D01*
X136691399Y-107720000D02*
X134263000Y-107720000D01*
X140970000Y-105664000D02*
X138747399Y-105664000D01*
X131212713Y-85090000D02*
X128270000Y-85090000D01*
X131953000Y-105410000D02*
X131953000Y-99883733D01*
X134263000Y-107720000D02*
X131953000Y-105410000D01*
X138747399Y-105664000D02*
X136691399Y-107720000D01*
D26*
X137370000Y-87700000D02*
X137620000Y-87700000D01*
X139679500Y-91419500D02*
X140970000Y-92710000D01*
X137620000Y-87700000D02*
X139679500Y-89759500D01*
X139679500Y-89759500D02*
X139679500Y-91419500D01*
D25*
X134620000Y-121424000D02*
X134620000Y-118924000D01*
X130537000Y-104610130D02*
X130537000Y-103251000D01*
X128238000Y-112578869D02*
X128238000Y-107696000D01*
X136306920Y-90423196D02*
X138434196Y-90423196D01*
X134583131Y-118924000D02*
X132376394Y-116717263D01*
X130537000Y-102321926D02*
X130355427Y-102140353D01*
X129892565Y-105254565D02*
X130537000Y-104610130D01*
X134620000Y-118924000D02*
X134583131Y-118924000D01*
X130537000Y-103251000D02*
X130537000Y-102321926D01*
X132376394Y-116717263D02*
X128238000Y-112578869D01*
X128238000Y-107696000D02*
X128238000Y-106909130D01*
X138434196Y-90423196D02*
X138440000Y-90429000D01*
X128238000Y-106909130D02*
X129892565Y-105254565D01*
X131245000Y-104903394D02*
X131245000Y-103124000D01*
X133084394Y-116424000D02*
X128946000Y-112285606D01*
X134620000Y-116424000D02*
X133084394Y-116424000D01*
X128946000Y-107202394D02*
X131245000Y-104903394D01*
X138435000Y-92964000D02*
X138440000Y-92969000D01*
X131245000Y-103124000D02*
X131245000Y-101618500D01*
X131245000Y-101618500D02*
X131099500Y-101473000D01*
X128946000Y-112285606D02*
X128946000Y-107569000D01*
X136306500Y-92964000D02*
X138435000Y-92964000D01*
X128946000Y-107569000D02*
X128946000Y-107202394D01*
X138430000Y-96012000D02*
X138430000Y-94825998D01*
X138430000Y-94825998D02*
X139719101Y-93536897D01*
X130820000Y-92969000D02*
X130820000Y-96002000D01*
X130820000Y-96002000D02*
X130810000Y-96012000D01*
X140970000Y-90170000D02*
X140970000Y-90138539D01*
X137668000Y-97023424D02*
X137668000Y-99743399D01*
X135452500Y-90069877D02*
X135452500Y-93317739D01*
X138574000Y-86951287D02*
X137868713Y-86246000D01*
X136166000Y-89356377D02*
X135452500Y-90069877D01*
X137160000Y-95025239D02*
X137160000Y-96515424D01*
X137868713Y-86246000D02*
X136871287Y-86246000D01*
X135452500Y-93317739D02*
X137160000Y-95025239D01*
X133527000Y-103884399D02*
X133527000Y-104866000D01*
X137160000Y-96515424D02*
X137668000Y-97023424D01*
X138574000Y-87742539D02*
X138574000Y-86951287D01*
X140970000Y-90138539D02*
X138574000Y-87742539D01*
X136871287Y-86246000D02*
X136166000Y-86951287D01*
X136166000Y-86951287D02*
X136166000Y-89356377D01*
X137668000Y-99743399D02*
X133527000Y-103884399D01*
X136890000Y-111744000D02*
X130650000Y-111744000D01*
X138430000Y-113284000D02*
X136890000Y-111744000D01*
X130650000Y-109744000D02*
X137430000Y-109744000D01*
X137430000Y-109744000D02*
X140970000Y-113284000D01*
G04 #@! TA.AperFunction,Conductor*
G36*
X131041643Y-85562093D02*
G01*
X131046479Y-85566526D01*
X131584885Y-86104932D01*
X131606625Y-86151552D01*
X131593311Y-86201239D01*
X131554949Y-86229625D01*
X131373580Y-86288555D01*
X131174171Y-86395862D01*
X131174166Y-86395866D01*
X130997130Y-86537047D01*
X130848143Y-86707576D01*
X130732004Y-86901958D01*
X130732002Y-86901963D01*
X130652433Y-87113970D01*
X130612000Y-87336768D01*
X130612000Y-87446000D01*
X131370000Y-87446000D01*
X131370000Y-87954000D01*
X130612000Y-87954000D01*
X130612000Y-88006516D01*
X130627211Y-88175525D01*
X130627212Y-88175529D01*
X130687456Y-88393815D01*
X130785704Y-88597833D01*
X130918804Y-88781030D01*
X131082477Y-88937519D01*
X131225171Y-89031710D01*
X131255821Y-89073022D01*
X131252744Y-89124370D01*
X131217382Y-89161727D01*
X131166280Y-89167614D01*
X131164281Y-89167108D01*
X131073999Y-89142917D01*
X131073999Y-90117313D01*
X131058045Y-90101359D01*
X130945148Y-90043835D01*
X130851481Y-90029000D01*
X130788519Y-90029000D01*
X130694852Y-90043835D01*
X130581955Y-90101359D01*
X130565999Y-90117314D01*
X130566000Y-89142917D01*
X130565999Y-89142917D01*
X130370929Y-89195186D01*
X130370925Y-89195188D01*
X130163507Y-89291908D01*
X129976018Y-89423189D01*
X129814189Y-89585018D01*
X129682908Y-89772507D01*
X129586188Y-89979925D01*
X129586187Y-89979929D01*
X129533918Y-90175000D01*
X130508314Y-90175000D01*
X130492359Y-90190955D01*
X130434835Y-90303852D01*
X130415014Y-90429000D01*
X130434835Y-90554148D01*
X130492359Y-90667045D01*
X130508314Y-90683000D01*
X129533918Y-90683000D01*
X129586187Y-90878070D01*
X129586188Y-90878074D01*
X129682908Y-91085492D01*
X129814189Y-91272981D01*
X129976018Y-91434810D01*
X130163507Y-91566091D01*
X130370925Y-91662811D01*
X130370929Y-91662812D01*
X130566000Y-91715081D01*
X130566000Y-90740686D01*
X130581955Y-90756641D01*
X130694852Y-90814165D01*
X130788519Y-90829000D01*
X130851481Y-90829000D01*
X130945148Y-90814165D01*
X131058045Y-90756641D01*
X131073999Y-90740686D01*
X131073999Y-91715081D01*
X131269070Y-91662812D01*
X131269074Y-91662811D01*
X131476492Y-91566091D01*
X131663981Y-91434810D01*
X131825810Y-91272981D01*
X131957091Y-91085492D01*
X132053811Y-90878074D01*
X132053812Y-90878070D01*
X132106082Y-90683000D01*
X131131686Y-90683000D01*
X131147641Y-90667045D01*
X131205165Y-90554148D01*
X131224986Y-90429000D01*
X131205165Y-90303852D01*
X131147641Y-90190955D01*
X131131686Y-90175000D01*
X132106082Y-90175000D01*
X132053812Y-89979929D01*
X132053811Y-89979925D01*
X131957091Y-89772507D01*
X131825810Y-89585018D01*
X131663981Y-89423189D01*
X131491761Y-89302599D01*
X131462256Y-89260462D01*
X131466740Y-89209218D01*
X131503113Y-89172845D01*
X131551628Y-89167685D01*
X131616000Y-89182378D01*
X131616000Y-88381115D01*
X131660156Y-88409493D01*
X131798111Y-88450000D01*
X131941889Y-88450000D01*
X132079844Y-88409493D01*
X132124000Y-88381115D01*
X132124000Y-89185081D01*
X132151064Y-89181415D01*
X132151073Y-89181413D01*
X132366419Y-89111444D01*
X132508665Y-89034898D01*
X132559568Y-89027485D01*
X132603327Y-89054526D01*
X132619500Y-89101119D01*
X132619500Y-98543323D01*
X132601907Y-98591661D01*
X132597474Y-98596497D01*
X131651165Y-99542806D01*
X131648019Y-99545618D01*
X131616067Y-99571098D01*
X131582260Y-99620682D01*
X131546629Y-99668962D01*
X131543998Y-99673941D01*
X131543950Y-99673915D01*
X131541278Y-99679208D01*
X131541327Y-99679232D01*
X131538882Y-99684308D01*
X131521196Y-99741648D01*
X131501377Y-99798285D01*
X131500331Y-99803816D01*
X131500279Y-99803806D01*
X131499286Y-99809650D01*
X131499339Y-99809658D01*
X131498500Y-99815225D01*
X131498500Y-99875224D01*
X131496255Y-99935195D01*
X131496887Y-99940798D01*
X131496832Y-99940804D01*
X131498500Y-99953470D01*
X131498500Y-100875749D01*
X131480907Y-100924087D01*
X131436358Y-100949807D01*
X131394522Y-100945225D01*
X131256263Y-100887956D01*
X131163540Y-100875749D01*
X131099500Y-100867318D01*
X131099499Y-100867318D01*
X130942736Y-100887956D01*
X130796660Y-100948463D01*
X130796657Y-100948465D01*
X130671217Y-101044717D01*
X130574965Y-101170157D01*
X130574963Y-101170160D01*
X130514456Y-101316236D01*
X130493295Y-101476972D01*
X130469542Y-101522599D01*
X130422018Y-101542284D01*
X130408924Y-101541713D01*
X130355428Y-101534671D01*
X130355427Y-101534671D01*
X130303173Y-101541550D01*
X130198663Y-101555309D01*
X130052587Y-101615816D01*
X130052584Y-101615818D01*
X129927144Y-101712070D01*
X129830892Y-101837510D01*
X129830890Y-101837513D01*
X129770383Y-101983589D01*
X129749745Y-102140352D01*
X129770383Y-102297116D01*
X129830890Y-102443192D01*
X129830892Y-102443195D01*
X129927144Y-102568635D01*
X130053079Y-102665267D01*
X130080717Y-102708650D01*
X130082500Y-102724927D01*
X130082500Y-104390721D01*
X130064907Y-104439059D01*
X130060474Y-104443895D01*
X129547096Y-104957273D01*
X127936165Y-106568203D01*
X127933019Y-106571015D01*
X127901067Y-106596495D01*
X127901064Y-106596498D01*
X127901064Y-106596499D01*
X127867260Y-106646079D01*
X127831629Y-106694359D01*
X127828998Y-106699338D01*
X127828950Y-106699312D01*
X127826278Y-106704605D01*
X127826327Y-106704629D01*
X127823882Y-106709705D01*
X127806196Y-106767045D01*
X127786377Y-106823682D01*
X127785331Y-106829213D01*
X127785279Y-106829203D01*
X127784286Y-106835047D01*
X127784339Y-106835055D01*
X127783500Y-106840622D01*
X127783500Y-106900621D01*
X127781255Y-106960592D01*
X127781887Y-106966195D01*
X127781832Y-106966201D01*
X127783500Y-106978867D01*
X127783500Y-112551226D01*
X127783263Y-112555439D01*
X127778687Y-112596051D01*
X127778687Y-112596058D01*
X127789843Y-112655017D01*
X127798785Y-112714344D01*
X127800447Y-112719731D01*
X127800393Y-112719747D01*
X127802246Y-112725377D01*
X127802298Y-112725359D01*
X127804159Y-112730678D01*
X127832196Y-112783726D01*
X127858230Y-112837784D01*
X127858233Y-112837790D01*
X127858237Y-112837794D01*
X127861408Y-112842445D01*
X127861361Y-112842476D01*
X127864787Y-112847305D01*
X127864832Y-112847273D01*
X127868177Y-112851805D01*
X127868178Y-112851806D01*
X127868180Y-112851809D01*
X127910609Y-112894238D01*
X127951423Y-112938225D01*
X127951424Y-112938226D01*
X127955832Y-112941741D01*
X127955797Y-112941784D01*
X127965933Y-112949562D01*
X132080379Y-117064010D01*
X132080400Y-117064029D01*
X132801775Y-117785404D01*
X133500226Y-118483855D01*
X133521966Y-118530475D01*
X133513638Y-118571976D01*
X133460211Y-118673771D01*
X133460210Y-118673772D01*
X133429677Y-118797651D01*
X133419500Y-118838944D01*
X133419500Y-119009056D01*
X133447518Y-119122730D01*
X133460210Y-119174225D01*
X133539266Y-119324852D01*
X133539268Y-119324855D01*
X133652062Y-119452174D01*
X133652067Y-119452178D01*
X133652071Y-119452183D01*
X133792070Y-119548818D01*
X133951128Y-119609140D01*
X134077628Y-119624500D01*
X134090300Y-119624500D01*
X134138638Y-119642093D01*
X134164358Y-119686642D01*
X134165500Y-119699700D01*
X134165500Y-120648300D01*
X134147907Y-120696638D01*
X134103358Y-120722358D01*
X134090300Y-120723500D01*
X134077628Y-120723500D01*
X133951128Y-120738860D01*
X133951126Y-120738860D01*
X133951124Y-120738861D01*
X133792072Y-120799181D01*
X133792069Y-120799182D01*
X133652072Y-120895816D01*
X133652062Y-120895825D01*
X133539268Y-121023144D01*
X133539266Y-121023147D01*
X133460210Y-121173774D01*
X133419500Y-121338945D01*
X133419500Y-121509054D01*
X133460210Y-121674227D01*
X133460211Y-121674228D01*
X133482005Y-121715753D01*
X133488891Y-121766730D01*
X133461398Y-121810206D01*
X133415419Y-121825900D01*
X132181045Y-121825900D01*
X132180868Y-121825886D01*
X132175051Y-121825887D01*
X132158495Y-121825890D01*
X132121557Y-121825899D01*
X132118287Y-121825758D01*
X131966899Y-121812582D01*
X131954021Y-121810320D01*
X131811968Y-121772393D01*
X131799676Y-121767935D01*
X131694309Y-121718972D01*
X131666332Y-121705971D01*
X131654999Y-121699451D01*
X131530448Y-121612566D01*
X131527850Y-121610581D01*
X131482504Y-121572685D01*
X131482362Y-121572584D01*
X128135987Y-118777203D01*
X128134206Y-118775617D01*
X128026915Y-118673772D01*
X127938175Y-118589537D01*
X127934986Y-118586107D01*
X127923400Y-118571976D01*
X127764346Y-118377989D01*
X127761609Y-118374190D01*
X127618168Y-118146461D01*
X127615924Y-118142352D01*
X127501917Y-117898565D01*
X127500200Y-117894203D01*
X127417389Y-117638126D01*
X127416227Y-117633583D01*
X127365901Y-117369200D01*
X127365313Y-117364548D01*
X127348176Y-117094747D01*
X127348100Y-117092363D01*
X127348100Y-100288838D01*
X127365693Y-100240500D01*
X127370126Y-100235664D01*
X128041177Y-99564612D01*
X128110146Y-99675263D01*
X128250268Y-99822671D01*
X128398419Y-99925788D01*
X127747393Y-100576814D01*
X127870824Y-100669213D01*
X128110357Y-100800008D01*
X128366091Y-100895392D01*
X128632761Y-100953402D01*
X128632784Y-100953405D01*
X128904994Y-100972874D01*
X128905006Y-100972874D01*
X129177215Y-100953405D01*
X129177238Y-100953402D01*
X129443908Y-100895392D01*
X129699642Y-100800008D01*
X129939175Y-100669213D01*
X130062605Y-100576814D01*
X129409488Y-99923697D01*
X129479214Y-99884996D01*
X129633531Y-99752520D01*
X129758021Y-99591692D01*
X129770487Y-99566278D01*
X130421814Y-100217605D01*
X130514213Y-100094175D01*
X130645008Y-99854642D01*
X130740392Y-99598908D01*
X130798402Y-99332238D01*
X130798405Y-99332215D01*
X130817874Y-99060005D01*
X130817874Y-99059994D01*
X130798405Y-98787784D01*
X130798402Y-98787761D01*
X130740392Y-98521091D01*
X130645008Y-98265357D01*
X130514213Y-98025824D01*
X130421814Y-97902394D01*
X129768821Y-98555385D01*
X129699854Y-98444737D01*
X129559732Y-98297329D01*
X129411578Y-98194210D01*
X130062605Y-97543184D01*
X129939175Y-97450786D01*
X129699642Y-97319991D01*
X129443908Y-97224607D01*
X129177238Y-97166597D01*
X129177215Y-97166594D01*
X128905006Y-97147126D01*
X128904994Y-97147126D01*
X128632784Y-97166594D01*
X128632761Y-97166597D01*
X128366091Y-97224607D01*
X128110357Y-97319991D01*
X127870824Y-97450786D01*
X127747393Y-97543184D01*
X128400512Y-98196302D01*
X128330786Y-98235004D01*
X128176469Y-98367480D01*
X128051979Y-98528308D01*
X128039512Y-98553722D01*
X127370126Y-97884335D01*
X127348386Y-97837715D01*
X127348100Y-97831161D01*
X127348100Y-96069046D01*
X127365693Y-96020708D01*
X127410242Y-95994988D01*
X127460900Y-96003921D01*
X127473962Y-96013473D01*
X127603956Y-96131979D01*
X127777359Y-96239346D01*
X127777361Y-96239346D01*
X127777363Y-96239348D01*
X127967544Y-96313024D01*
X128168024Y-96350500D01*
X128168029Y-96350500D01*
X128371971Y-96350500D01*
X128371976Y-96350500D01*
X128572456Y-96313024D01*
X128762637Y-96239348D01*
X128936041Y-96131981D01*
X129067654Y-96012000D01*
X129804659Y-96012000D01*
X129823975Y-96208128D01*
X129823975Y-96208130D01*
X129823976Y-96208132D01*
X129867163Y-96350500D01*
X129881188Y-96396732D01*
X129974087Y-96570533D01*
X129974091Y-96570539D01*
X130099116Y-96722883D01*
X130178905Y-96788364D01*
X130251462Y-96847910D01*
X130425273Y-96940814D01*
X130613868Y-96998024D01*
X130810000Y-97017341D01*
X131006132Y-96998024D01*
X131194727Y-96940814D01*
X131368538Y-96847910D01*
X131520883Y-96722883D01*
X131645910Y-96570538D01*
X131738814Y-96396727D01*
X131796024Y-96208132D01*
X131815341Y-96012000D01*
X131796024Y-95815868D01*
X131738814Y-95627273D01*
X131645910Y-95453462D01*
X131522570Y-95303172D01*
X131520883Y-95301116D01*
X131368539Y-95176091D01*
X131368537Y-95176089D01*
X131314250Y-95147072D01*
X131279914Y-95108770D01*
X131274500Y-95080752D01*
X131274500Y-94044700D01*
X131292093Y-93996362D01*
X131336642Y-93970642D01*
X131349700Y-93969500D01*
X131639749Y-93969500D01*
X131661471Y-93965179D01*
X131698231Y-93957867D01*
X131764552Y-93913552D01*
X131808867Y-93847231D01*
X131820500Y-93788748D01*
X131820500Y-92149252D01*
X131808867Y-92090769D01*
X131764552Y-92024448D01*
X131698231Y-91980133D01*
X131698229Y-91980132D01*
X131639749Y-91968500D01*
X131639748Y-91968500D01*
X130000252Y-91968500D01*
X130000251Y-91968500D01*
X129941770Y-91980132D01*
X129941768Y-91980133D01*
X129875448Y-92024448D01*
X129831133Y-92090768D01*
X129831132Y-92090770D01*
X129819500Y-92149251D01*
X129819500Y-93788748D01*
X129831132Y-93847229D01*
X129831133Y-93847231D01*
X129875448Y-93913552D01*
X129941769Y-93957867D01*
X129971010Y-93963683D01*
X130000251Y-93969500D01*
X130000252Y-93969500D01*
X130290300Y-93969500D01*
X130338638Y-93987093D01*
X130364358Y-94031642D01*
X130365500Y-94044700D01*
X130365500Y-95070062D01*
X130347907Y-95118400D01*
X130325749Y-95136382D01*
X130251466Y-95176087D01*
X130251460Y-95176091D01*
X130099116Y-95301116D01*
X129974091Y-95453460D01*
X129974087Y-95453466D01*
X129881188Y-95627267D01*
X129823975Y-95815871D01*
X129804659Y-96012000D01*
X129067654Y-96012000D01*
X129086764Y-95994579D01*
X129209673Y-95831821D01*
X129300582Y-95649250D01*
X129356397Y-95453083D01*
X129375215Y-95250000D01*
X129374309Y-95240226D01*
X129368366Y-95176087D01*
X129356397Y-95046917D01*
X129345340Y-95008055D01*
X129300583Y-94850752D01*
X129300581Y-94850748D01*
X129209675Y-94668182D01*
X129204665Y-94661548D01*
X129092762Y-94513363D01*
X129086767Y-94505424D01*
X129086764Y-94505421D01*
X128936043Y-94368020D01*
X128762640Y-94260653D01*
X128572457Y-94186976D01*
X128539042Y-94180730D01*
X128371976Y-94149500D01*
X128168024Y-94149500D01*
X128034370Y-94174484D01*
X127967542Y-94186976D01*
X127777360Y-94260653D01*
X127777359Y-94260653D01*
X127603956Y-94368020D01*
X127473962Y-94486526D01*
X127426387Y-94506090D01*
X127377368Y-94490495D01*
X127349841Y-94447041D01*
X127348100Y-94430953D01*
X127348100Y-93529046D01*
X127365693Y-93480708D01*
X127410242Y-93454988D01*
X127460900Y-93463921D01*
X127473962Y-93473473D01*
X127603956Y-93591979D01*
X127777359Y-93699346D01*
X127777361Y-93699346D01*
X127777363Y-93699348D01*
X127967544Y-93773024D01*
X128168024Y-93810500D01*
X128168029Y-93810500D01*
X128371971Y-93810500D01*
X128371976Y-93810500D01*
X128572456Y-93773024D01*
X128762637Y-93699348D01*
X128936041Y-93591981D01*
X129086764Y-93454579D01*
X129209673Y-93291821D01*
X129300582Y-93109250D01*
X129342967Y-92960286D01*
X129356396Y-92913087D01*
X129356396Y-92913086D01*
X129356397Y-92913083D01*
X129375215Y-92710000D01*
X129356397Y-92506917D01*
X129355592Y-92504086D01*
X129300583Y-92310752D01*
X129300581Y-92310748D01*
X129209675Y-92128182D01*
X129086767Y-91965424D01*
X129086764Y-91965421D01*
X128936043Y-91828020D01*
X128762640Y-91720653D01*
X128572457Y-91646976D01*
X128539042Y-91640730D01*
X128371976Y-91609500D01*
X128168024Y-91609500D01*
X128059958Y-91629701D01*
X127967542Y-91646976D01*
X127777360Y-91720653D01*
X127777359Y-91720653D01*
X127603956Y-91828020D01*
X127473962Y-91946526D01*
X127426387Y-91966090D01*
X127377368Y-91950495D01*
X127349841Y-91907041D01*
X127348100Y-91890953D01*
X127348100Y-90989046D01*
X127365693Y-90940708D01*
X127410242Y-90914988D01*
X127460900Y-90923921D01*
X127473960Y-90933472D01*
X127504142Y-90960986D01*
X127603956Y-91051979D01*
X127777359Y-91159346D01*
X127777361Y-91159346D01*
X127777363Y-91159348D01*
X127967544Y-91233024D01*
X128168024Y-91270500D01*
X128168029Y-91270500D01*
X128371971Y-91270500D01*
X128371976Y-91270500D01*
X128572456Y-91233024D01*
X128762637Y-91159348D01*
X128936041Y-91051981D01*
X129086764Y-90914579D01*
X129209673Y-90751821D01*
X129300582Y-90569250D01*
X129356397Y-90373083D01*
X129375215Y-90170000D01*
X129372399Y-90139614D01*
X129363524Y-90043835D01*
X129356397Y-89966917D01*
X129356396Y-89966912D01*
X129300583Y-89770752D01*
X129300581Y-89770748D01*
X129209675Y-89588182D01*
X129196815Y-89571153D01*
X129177043Y-89544970D01*
X129086767Y-89425424D01*
X129086764Y-89425421D01*
X128936043Y-89288020D01*
X128762640Y-89180653D01*
X128638358Y-89132506D01*
X128599640Y-89098639D01*
X128591749Y-89047808D01*
X128618378Y-89003797D01*
X128641106Y-88991258D01*
X128837525Y-88923828D01*
X129042744Y-88812769D01*
X129071317Y-88790529D01*
X129071317Y-88790527D01*
X128397588Y-88116797D01*
X128412315Y-88114680D01*
X128543100Y-88054952D01*
X128651761Y-87960798D01*
X128729493Y-87839844D01*
X128754361Y-87755150D01*
X129429202Y-88429991D01*
X129512544Y-88302428D01*
X129606272Y-88088750D01*
X129606273Y-88088746D01*
X129663557Y-87862540D01*
X129682826Y-87630001D01*
X129682826Y-87629998D01*
X129663557Y-87397459D01*
X129606273Y-87171253D01*
X129606272Y-87171249D01*
X129512543Y-86957570D01*
X129512541Y-86957566D01*
X129429203Y-86830007D01*
X129429202Y-86830007D01*
X128754360Y-87504848D01*
X128729493Y-87420156D01*
X128651761Y-87299202D01*
X128543100Y-87205048D01*
X128412315Y-87145320D01*
X128397587Y-87143202D01*
X129071317Y-86469471D01*
X129071317Y-86469469D01*
X129042745Y-86447230D01*
X128837522Y-86336170D01*
X128837518Y-86336168D01*
X128641106Y-86268740D01*
X128601100Y-86236405D01*
X128591238Y-86185919D01*
X128616135Y-86140906D01*
X128638355Y-86127494D01*
X128762637Y-86079348D01*
X128936041Y-85971981D01*
X129086764Y-85834579D01*
X129209673Y-85671821D01*
X129252316Y-85586180D01*
X129289611Y-85550753D01*
X129319633Y-85544500D01*
X130993305Y-85544500D01*
X131041643Y-85562093D01*
G37*
G04 #@! TD.AperFunction*
G04 #@! TA.AperFunction,Conductor*
G36*
X137258930Y-110216093D02*
G01*
X137263766Y-110220526D01*
X139914540Y-112871300D01*
X139936280Y-112917920D01*
X139933695Y-112945053D01*
X139894463Y-113082938D01*
X139894462Y-113082946D01*
X139875832Y-113283997D01*
X139875832Y-113284002D01*
X139894462Y-113485057D01*
X139949717Y-113679257D01*
X139949719Y-113679260D01*
X140039717Y-113860001D01*
X140161400Y-114021136D01*
X140310613Y-114157163D01*
X140482283Y-114263457D01*
X140482285Y-114263457D01*
X140482287Y-114263459D01*
X140670567Y-114336399D01*
X140869043Y-114373500D01*
X140869048Y-114373500D01*
X141070952Y-114373500D01*
X141070957Y-114373500D01*
X141269433Y-114336399D01*
X141457713Y-114263459D01*
X141629384Y-114157165D01*
X141766039Y-114032586D01*
X141813612Y-114013023D01*
X141862631Y-114028617D01*
X141890159Y-114072072D01*
X141891900Y-114088160D01*
X141891900Y-116549544D01*
X141874307Y-116597882D01*
X141829758Y-116623602D01*
X141779100Y-116614669D01*
X141746035Y-116575264D01*
X141743073Y-116564844D01*
X141734574Y-116523945D01*
X141734570Y-116523933D01*
X141638001Y-116252210D01*
X141638000Y-116252209D01*
X141505323Y-115996155D01*
X141361211Y-115791996D01*
X140748545Y-116404662D01*
X140747433Y-116402596D01*
X140607145Y-116226680D01*
X140437701Y-116078642D01*
X140386649Y-116048140D01*
X141000368Y-115434421D01*
X140918477Y-115367798D01*
X140672085Y-115217965D01*
X140672078Y-115217961D01*
X140407585Y-115103075D01*
X140407576Y-115103072D01*
X140129887Y-115025268D01*
X139844185Y-114986000D01*
X139555815Y-114986000D01*
X139270112Y-115025268D01*
X138992423Y-115103072D01*
X138992414Y-115103075D01*
X138727921Y-115217961D01*
X138727914Y-115217965D01*
X138481519Y-115367801D01*
X138481512Y-115367806D01*
X138399630Y-115434420D01*
X138399630Y-115434421D01*
X139013150Y-116047941D01*
X138874253Y-116148856D01*
X138718761Y-116311488D01*
X138654949Y-116408158D01*
X138038787Y-115791996D01*
X138038786Y-115791996D01*
X137894678Y-115996151D01*
X137761999Y-116252209D01*
X137761998Y-116252210D01*
X137665429Y-116523933D01*
X137665425Y-116523945D01*
X137606755Y-116806280D01*
X137606755Y-116806283D01*
X137587074Y-117093999D01*
X137606755Y-117381716D01*
X137606755Y-117381719D01*
X137665425Y-117664054D01*
X137665429Y-117664066D01*
X137761998Y-117935789D01*
X137761999Y-117935790D01*
X137894678Y-118191848D01*
X138038787Y-118396002D01*
X138651453Y-117783335D01*
X138652567Y-117785404D01*
X138792855Y-117961320D01*
X138962299Y-118109358D01*
X139013349Y-118139859D01*
X138399630Y-118753577D01*
X138481514Y-118820195D01*
X138481521Y-118820200D01*
X138727914Y-118970034D01*
X138727921Y-118970038D01*
X138992414Y-119084924D01*
X138992423Y-119084927D01*
X139270112Y-119162731D01*
X139555815Y-119202000D01*
X139844185Y-119202000D01*
X140129887Y-119162731D01*
X140407576Y-119084927D01*
X140407585Y-119084924D01*
X140612207Y-118996043D01*
X140663552Y-118992922D01*
X140704891Y-119023535D01*
X140716880Y-119073558D01*
X140693911Y-119119584D01*
X140690377Y-119122730D01*
X137757637Y-121572584D01*
X137757496Y-121572685D01*
X137712225Y-121610518D01*
X137709624Y-121612506D01*
X137584994Y-121699445D01*
X137573661Y-121705965D01*
X137440323Y-121767927D01*
X137428030Y-121772386D01*
X137285976Y-121810313D01*
X137273099Y-121812575D01*
X137172410Y-121821338D01*
X137121628Y-121825758D01*
X137118368Y-121825899D01*
X137081893Y-121825890D01*
X137064949Y-121825887D01*
X137064948Y-121825887D01*
X137059131Y-121825886D01*
X137058955Y-121825900D01*
X135824581Y-121825900D01*
X135776243Y-121808307D01*
X135750523Y-121763758D01*
X135757995Y-121715753D01*
X135779788Y-121674228D01*
X135779789Y-121674227D01*
X135779789Y-121674226D01*
X135779790Y-121674225D01*
X135820500Y-121509056D01*
X135820500Y-121338944D01*
X135779790Y-121173775D01*
X135700734Y-121023148D01*
X135700732Y-121023146D01*
X135700731Y-121023144D01*
X135587937Y-120895825D01*
X135587932Y-120895820D01*
X135587929Y-120895817D01*
X135447930Y-120799182D01*
X135288872Y-120738860D01*
X135162372Y-120723500D01*
X135149700Y-120723500D01*
X135101362Y-120705907D01*
X135075642Y-120661358D01*
X135074500Y-120648300D01*
X135074500Y-119699700D01*
X135092093Y-119651362D01*
X135136642Y-119625642D01*
X135149700Y-119624500D01*
X135162372Y-119624500D01*
X135288872Y-119609140D01*
X135447930Y-119548818D01*
X135587929Y-119452183D01*
X135700734Y-119324852D01*
X135779790Y-119174225D01*
X135820500Y-119009056D01*
X135820500Y-118838944D01*
X135779790Y-118673775D01*
X135700734Y-118523148D01*
X135700732Y-118523146D01*
X135700731Y-118523144D01*
X135587937Y-118395825D01*
X135587932Y-118395820D01*
X135587929Y-118395817D01*
X135447930Y-118299182D01*
X135288872Y-118238860D01*
X135162372Y-118223500D01*
X134556539Y-118223500D01*
X134508201Y-118205907D01*
X134503365Y-118201474D01*
X133308766Y-117006874D01*
X133287026Y-116960254D01*
X133300340Y-116910567D01*
X133342477Y-116881062D01*
X133361940Y-116878500D01*
X133552949Y-116878500D01*
X133601287Y-116896093D01*
X133609236Y-116903832D01*
X133652071Y-116952183D01*
X133792070Y-117048818D01*
X133951128Y-117109140D01*
X134077628Y-117124500D01*
X135162372Y-117124500D01*
X135288872Y-117109140D01*
X135447930Y-117048818D01*
X135587929Y-116952183D01*
X135700734Y-116824852D01*
X135779790Y-116674225D01*
X135820500Y-116509056D01*
X135820500Y-116338944D01*
X135779790Y-116173775D01*
X135700734Y-116023148D01*
X135700732Y-116023146D01*
X135700731Y-116023144D01*
X135587937Y-115895825D01*
X135587932Y-115895820D01*
X135587929Y-115895817D01*
X135447930Y-115799182D01*
X135288872Y-115738860D01*
X135162372Y-115723500D01*
X134077628Y-115723500D01*
X133951128Y-115738860D01*
X133951126Y-115738860D01*
X133951124Y-115738861D01*
X133792072Y-115799181D01*
X133792069Y-115799182D01*
X133652072Y-115895816D01*
X133652069Y-115895818D01*
X133609237Y-115944167D01*
X133564014Y-115968681D01*
X133552949Y-115969500D01*
X133303802Y-115969500D01*
X133255464Y-115951907D01*
X133250628Y-115947474D01*
X129876029Y-112572874D01*
X129854289Y-112526254D01*
X129867603Y-112476567D01*
X129909740Y-112447062D01*
X129929203Y-112444500D01*
X131704272Y-112444500D01*
X131718312Y-112443182D01*
X131734699Y-112441646D01*
X131862882Y-112396793D01*
X131972150Y-112316150D01*
X132036436Y-112229044D01*
X132079296Y-112200600D01*
X132096942Y-112198500D01*
X136670592Y-112198500D01*
X136718930Y-112216093D01*
X136723766Y-112220526D01*
X137374540Y-112871300D01*
X137396280Y-112917920D01*
X137393695Y-112945053D01*
X137354463Y-113082938D01*
X137354462Y-113082946D01*
X137335832Y-113283997D01*
X137335832Y-113284002D01*
X137354462Y-113485057D01*
X137409717Y-113679257D01*
X137409719Y-113679260D01*
X137499717Y-113860001D01*
X137621400Y-114021136D01*
X137770613Y-114157163D01*
X137942283Y-114263457D01*
X137942285Y-114263457D01*
X137942287Y-114263459D01*
X138130567Y-114336399D01*
X138329043Y-114373500D01*
X138329048Y-114373500D01*
X138530952Y-114373500D01*
X138530957Y-114373500D01*
X138729433Y-114336399D01*
X138917713Y-114263459D01*
X139089384Y-114157165D01*
X139238600Y-114021136D01*
X139360280Y-113860005D01*
X139450281Y-113679259D01*
X139505538Y-113485053D01*
X139524168Y-113284000D01*
X139505538Y-113082947D01*
X139505537Y-113082942D01*
X139450282Y-112888742D01*
X139450280Y-112888739D01*
X139360282Y-112707998D01*
X139245075Y-112555439D01*
X139238600Y-112546864D01*
X139226038Y-112535412D01*
X139089386Y-112410836D01*
X138917716Y-112304542D01*
X138729434Y-112231601D01*
X138696353Y-112225417D01*
X138530957Y-112194500D01*
X138329043Y-112194500D01*
X138213529Y-112216093D01*
X138130565Y-112231601D01*
X138096821Y-112244673D01*
X138045392Y-112245727D01*
X138016484Y-112227724D01*
X137230926Y-111442165D01*
X137228114Y-111439019D01*
X137227321Y-111438024D01*
X137202631Y-111407064D01*
X137153050Y-111373260D01*
X137124815Y-111352422D01*
X137104771Y-111337629D01*
X137099790Y-111334997D01*
X137099815Y-111334948D01*
X137094532Y-111332281D01*
X137094509Y-111332330D01*
X137089431Y-111329885D01*
X137032083Y-111312195D01*
X136975454Y-111292379D01*
X136969918Y-111291332D01*
X136969927Y-111291279D01*
X136964083Y-111290286D01*
X136964076Y-111290339D01*
X136958508Y-111289500D01*
X136958505Y-111289500D01*
X136898509Y-111289500D01*
X136838539Y-111287255D01*
X136832939Y-111287887D01*
X136832932Y-111287832D01*
X136820263Y-111289500D01*
X132096942Y-111289500D01*
X132048604Y-111271907D01*
X132036436Y-111258955D01*
X132027136Y-111246354D01*
X131972150Y-111171850D01*
X131862882Y-111091207D01*
X131862879Y-111091205D01*
X131765470Y-111057121D01*
X131734699Y-111046354D01*
X131734694Y-111046353D01*
X131734692Y-111046353D01*
X131704273Y-111043500D01*
X131704266Y-111043500D01*
X129595734Y-111043500D01*
X129595727Y-111043500D01*
X129565307Y-111046353D01*
X129565295Y-111046355D01*
X129500536Y-111069015D01*
X129449100Y-111068373D01*
X129410111Y-111034819D01*
X129400500Y-110998035D01*
X129400500Y-110489964D01*
X129418093Y-110441626D01*
X129462642Y-110415906D01*
X129500536Y-110418983D01*
X129565301Y-110441646D01*
X129579347Y-110442963D01*
X129595727Y-110444500D01*
X129595734Y-110444500D01*
X131704272Y-110444500D01*
X131718312Y-110443182D01*
X131734699Y-110441646D01*
X131862882Y-110396793D01*
X131972150Y-110316150D01*
X132036436Y-110229044D01*
X132079296Y-110200600D01*
X132096942Y-110198500D01*
X137210592Y-110198500D01*
X137258930Y-110216093D01*
G37*
G04 #@! TD.AperFunction*
G04 #@! TA.AperFunction,Conductor*
G36*
X131468744Y-105410290D02*
G01*
X131498249Y-105452427D01*
X131499500Y-105457908D01*
X131504843Y-105486148D01*
X131513785Y-105545475D01*
X131515447Y-105550862D01*
X131515393Y-105550878D01*
X131517246Y-105556508D01*
X131517298Y-105556490D01*
X131519159Y-105561809D01*
X131547196Y-105614857D01*
X131565244Y-105652333D01*
X131573233Y-105668921D01*
X131573237Y-105668925D01*
X131576408Y-105673576D01*
X131576361Y-105673607D01*
X131579787Y-105678436D01*
X131579832Y-105678404D01*
X131583177Y-105682936D01*
X131583178Y-105682937D01*
X131583180Y-105682940D01*
X131625609Y-105725369D01*
X131666423Y-105769356D01*
X131666424Y-105769357D01*
X131670832Y-105772872D01*
X131670797Y-105772915D01*
X131680933Y-105780693D01*
X133922076Y-108021836D01*
X133924880Y-108024974D01*
X133950368Y-108056935D01*
X133950369Y-108056936D01*
X133975164Y-108073841D01*
X133999959Y-108090746D01*
X134029301Y-108112401D01*
X134048227Y-108126369D01*
X134048228Y-108126369D01*
X134048229Y-108126370D01*
X134053215Y-108129006D01*
X134053188Y-108129055D01*
X134058471Y-108131721D01*
X134058496Y-108131671D01*
X134063564Y-108134111D01*
X134063572Y-108134116D01*
X134120928Y-108151808D01*
X134177549Y-108171620D01*
X134177552Y-108171620D01*
X134177555Y-108171621D01*
X134183091Y-108172669D01*
X134183080Y-108172723D01*
X134188917Y-108173714D01*
X134188926Y-108173660D01*
X134194492Y-108174499D01*
X134194495Y-108174500D01*
X134254517Y-108174500D01*
X134314460Y-108176743D01*
X134314460Y-108176742D01*
X134314462Y-108176743D01*
X134314463Y-108176742D01*
X134320062Y-108176112D01*
X134320068Y-108176167D01*
X134332733Y-108174500D01*
X136663756Y-108174500D01*
X136667969Y-108174737D01*
X136679937Y-108176085D01*
X136708585Y-108179313D01*
X136767547Y-108168156D01*
X136826878Y-108159214D01*
X136832262Y-108157553D01*
X136832278Y-108157608D01*
X136837898Y-108155758D01*
X136837880Y-108155705D01*
X136843201Y-108153841D01*
X136843206Y-108153841D01*
X136896257Y-108125802D01*
X136950320Y-108099767D01*
X136950325Y-108099761D01*
X136954979Y-108096590D01*
X136955011Y-108096637D01*
X136959834Y-108093216D01*
X136959800Y-108093170D01*
X136964335Y-108089821D01*
X136964339Y-108089820D01*
X137006768Y-108047390D01*
X137050755Y-108006577D01*
X137054269Y-108002171D01*
X137054312Y-108002205D01*
X137062089Y-107992068D01*
X138913632Y-106140526D01*
X138960253Y-106118786D01*
X138966807Y-106118500D01*
X139847531Y-106118500D01*
X139895869Y-106136093D01*
X139914847Y-106160180D01*
X139974657Y-106280293D01*
X140104843Y-106452687D01*
X140104846Y-106452690D01*
X140264496Y-106598232D01*
X140264500Y-106598235D01*
X140431273Y-106701496D01*
X140463109Y-106741900D01*
X140461525Y-106793316D01*
X140427263Y-106831684D01*
X140416105Y-106836557D01*
X140376186Y-106850262D01*
X140161475Y-106966457D01*
X140122221Y-106997010D01*
X140122221Y-106997012D01*
X140842412Y-107717202D01*
X140827685Y-107719320D01*
X140696900Y-107779048D01*
X140588239Y-107873202D01*
X140510507Y-107994156D01*
X140485639Y-108078847D01*
X139763691Y-107356901D01*
X139763690Y-107356901D01*
X139669916Y-107500434D01*
X139669916Y-107500436D01*
X139571850Y-107724002D01*
X139571848Y-107724010D01*
X139511911Y-107960690D01*
X139491751Y-108203998D01*
X139491751Y-108204001D01*
X139511911Y-108447309D01*
X139571848Y-108683989D01*
X139571850Y-108683997D01*
X139669916Y-108907563D01*
X139669916Y-108907565D01*
X139763691Y-109051097D01*
X140485638Y-108329150D01*
X140510507Y-108413844D01*
X140588239Y-108534798D01*
X140696900Y-108628952D01*
X140827685Y-108688680D01*
X140842410Y-108690797D01*
X140122221Y-109410986D01*
X140122221Y-109410988D01*
X140161476Y-109441542D01*
X140319107Y-109526848D01*
X140353245Y-109565327D01*
X140354663Y-109616747D01*
X140336490Y-109646158D01*
X139849065Y-110133583D01*
X139849059Y-110133591D01*
X139815935Y-110183164D01*
X139815932Y-110183170D01*
X139804300Y-110241651D01*
X139804300Y-111246354D01*
X139812844Y-111289311D01*
X139805018Y-111340152D01*
X139766343Y-111374068D01*
X139714916Y-111375190D01*
X139685915Y-111357155D01*
X138818724Y-110489964D01*
X137770926Y-109442165D01*
X137768114Y-109439019D01*
X137745760Y-109410988D01*
X137742631Y-109407064D01*
X137693050Y-109373260D01*
X137664815Y-109352422D01*
X137644771Y-109337629D01*
X137639790Y-109334997D01*
X137639815Y-109334948D01*
X137634532Y-109332281D01*
X137634509Y-109332330D01*
X137629431Y-109329885D01*
X137572083Y-109312195D01*
X137515454Y-109292379D01*
X137509918Y-109291332D01*
X137509927Y-109291279D01*
X137504083Y-109290286D01*
X137504076Y-109290339D01*
X137498508Y-109289500D01*
X137498505Y-109289500D01*
X137438509Y-109289500D01*
X137378539Y-109287255D01*
X137372939Y-109287887D01*
X137372932Y-109287832D01*
X137360263Y-109289500D01*
X132096942Y-109289500D01*
X132048604Y-109271907D01*
X132036436Y-109258955D01*
X131972150Y-109171850D01*
X131862882Y-109091207D01*
X131862879Y-109091205D01*
X131765470Y-109057121D01*
X131734699Y-109046354D01*
X131734694Y-109046353D01*
X131734692Y-109046353D01*
X131704273Y-109043500D01*
X131704266Y-109043500D01*
X129595734Y-109043500D01*
X129595727Y-109043500D01*
X129565307Y-109046353D01*
X129565295Y-109046355D01*
X129500536Y-109069015D01*
X129449100Y-109068373D01*
X129410111Y-109034819D01*
X129400500Y-108998035D01*
X129400500Y-108489964D01*
X129418093Y-108441626D01*
X129462642Y-108415906D01*
X129500536Y-108418983D01*
X129565301Y-108441646D01*
X129579347Y-108442963D01*
X129595727Y-108444500D01*
X129595734Y-108444500D01*
X131704272Y-108444500D01*
X131718312Y-108443182D01*
X131734699Y-108441646D01*
X131862882Y-108396793D01*
X131972150Y-108316150D01*
X132052793Y-108206882D01*
X132097646Y-108078699D01*
X132099687Y-108056935D01*
X132100500Y-108048273D01*
X132100500Y-107439726D01*
X132098869Y-107422343D01*
X132097646Y-107409301D01*
X132052793Y-107281118D01*
X131972150Y-107171850D01*
X131862882Y-107091207D01*
X131862879Y-107091205D01*
X131765470Y-107057121D01*
X131734699Y-107046354D01*
X131734694Y-107046353D01*
X131734692Y-107046353D01*
X131704273Y-107043500D01*
X131704266Y-107043500D01*
X129929202Y-107043500D01*
X129880864Y-107025907D01*
X129855144Y-106981358D01*
X129864077Y-106930700D01*
X129876028Y-106915126D01*
X130596280Y-106194874D01*
X131372438Y-105418715D01*
X131419057Y-105396976D01*
X131468744Y-105410290D01*
G37*
G04 #@! TD.AperFunction*
G04 #@! TA.AperFunction,Conductor*
G36*
X141862632Y-93469503D02*
G01*
X141890159Y-93512958D01*
X141891900Y-93529046D01*
X141891900Y-94430953D01*
X141874307Y-94479291D01*
X141829758Y-94505011D01*
X141779100Y-94496078D01*
X141766038Y-94486526D01*
X141636043Y-94368020D01*
X141462640Y-94260653D01*
X141272457Y-94186976D01*
X141239042Y-94180730D01*
X141071976Y-94149500D01*
X140868024Y-94149500D01*
X140734370Y-94174484D01*
X140667542Y-94186976D01*
X140477360Y-94260653D01*
X140477359Y-94260653D01*
X140303956Y-94368020D01*
X140153235Y-94505421D01*
X140153232Y-94505424D01*
X140030324Y-94668182D01*
X139939418Y-94850748D01*
X139939416Y-94850752D01*
X139883603Y-95046912D01*
X139864785Y-95249997D01*
X139864785Y-95250002D01*
X139883603Y-95453087D01*
X139939416Y-95649247D01*
X139939418Y-95649251D01*
X140030324Y-95831817D01*
X140153232Y-95994575D01*
X140153235Y-95994578D01*
X140303956Y-96131979D01*
X140477359Y-96239346D01*
X140477361Y-96239346D01*
X140477363Y-96239348D01*
X140667544Y-96313024D01*
X140868024Y-96350500D01*
X140868029Y-96350500D01*
X141071971Y-96350500D01*
X141071976Y-96350500D01*
X141272456Y-96313024D01*
X141462637Y-96239348D01*
X141636041Y-96131981D01*
X141766038Y-96013472D01*
X141813612Y-95993909D01*
X141862632Y-96009503D01*
X141890159Y-96052958D01*
X141891900Y-96069046D01*
X141891900Y-97831160D01*
X141874307Y-97879498D01*
X141869874Y-97884334D01*
X141198821Y-98555385D01*
X141129854Y-98444737D01*
X140989732Y-98297329D01*
X140841578Y-98194210D01*
X141492605Y-97543184D01*
X141369175Y-97450786D01*
X141129642Y-97319991D01*
X140873908Y-97224607D01*
X140607238Y-97166597D01*
X140607215Y-97166594D01*
X140335006Y-97147126D01*
X140334994Y-97147126D01*
X140062784Y-97166594D01*
X140062761Y-97166597D01*
X139796091Y-97224607D01*
X139540357Y-97319991D01*
X139300824Y-97450786D01*
X139177394Y-97543184D01*
X139830512Y-98196302D01*
X139760786Y-98235004D01*
X139606469Y-98367480D01*
X139481979Y-98528308D01*
X139469512Y-98553721D01*
X138818184Y-97902394D01*
X138725786Y-98025824D01*
X138594991Y-98265357D01*
X138499607Y-98521091D01*
X138441597Y-98787761D01*
X138441594Y-98787784D01*
X138422126Y-99059994D01*
X138422126Y-99060005D01*
X138441594Y-99332215D01*
X138441597Y-99332238D01*
X138499607Y-99598908D01*
X138594991Y-99854642D01*
X138725786Y-100094175D01*
X138818184Y-100217604D01*
X139471176Y-99564611D01*
X139540146Y-99675263D01*
X139680268Y-99822671D01*
X139828419Y-99925788D01*
X139177393Y-100576814D01*
X139300824Y-100669213D01*
X139540357Y-100800008D01*
X139796091Y-100895392D01*
X140062761Y-100953402D01*
X140062784Y-100953405D01*
X140334994Y-100972874D01*
X140335006Y-100972874D01*
X140607215Y-100953405D01*
X140607238Y-100953402D01*
X140873908Y-100895392D01*
X141129642Y-100800008D01*
X141369175Y-100669213D01*
X141492605Y-100576814D01*
X140839488Y-99923697D01*
X140909214Y-99884996D01*
X141063531Y-99752520D01*
X141188021Y-99591692D01*
X141200487Y-99566278D01*
X141869874Y-100235665D01*
X141891614Y-100282285D01*
X141891900Y-100288839D01*
X141891900Y-104756728D01*
X141874307Y-104805066D01*
X141829758Y-104830786D01*
X141779100Y-104821853D01*
X141766038Y-104812301D01*
X141675503Y-104729767D01*
X141491827Y-104616040D01*
X141491824Y-104616039D01*
X141491823Y-104616038D01*
X141290376Y-104537996D01*
X141290378Y-104537996D01*
X141229702Y-104526654D01*
X141078018Y-104498300D01*
X140861982Y-104498300D01*
X140720409Y-104524764D01*
X140649622Y-104537996D01*
X140448172Y-104616040D01*
X140264496Y-104729767D01*
X140104846Y-104875309D01*
X140104843Y-104875312D01*
X139974657Y-105047706D01*
X139914847Y-105167820D01*
X139877552Y-105203248D01*
X139847531Y-105209500D01*
X138775039Y-105209500D01*
X138770826Y-105209263D01*
X138730215Y-105204687D01*
X138730209Y-105204687D01*
X138671250Y-105215843D01*
X138611920Y-105224786D01*
X138606535Y-105226447D01*
X138606519Y-105226395D01*
X138600886Y-105228249D01*
X138600904Y-105228300D01*
X138595592Y-105230158D01*
X138542541Y-105258196D01*
X138488482Y-105284230D01*
X138483823Y-105287407D01*
X138483792Y-105287362D01*
X138478960Y-105290790D01*
X138478992Y-105290834D01*
X138474460Y-105294178D01*
X138432028Y-105336610D01*
X138388040Y-105377425D01*
X138384528Y-105381830D01*
X138384485Y-105381796D01*
X138376707Y-105391930D01*
X137502869Y-106265767D01*
X137456249Y-106287507D01*
X137406562Y-106274193D01*
X137377057Y-106232056D01*
X137374781Y-106206039D01*
X137375758Y-106194874D01*
X137382659Y-106116000D01*
X137362063Y-105880592D01*
X137300903Y-105652337D01*
X137256217Y-105556508D01*
X137201038Y-105438176D01*
X137201035Y-105438173D01*
X137201035Y-105438171D01*
X137065495Y-105244599D01*
X137065494Y-105244598D01*
X137065492Y-105244595D01*
X136898404Y-105077507D01*
X136704824Y-104941961D01*
X136490666Y-104842098D01*
X136490663Y-104842097D01*
X136262408Y-104780937D01*
X136262406Y-104780936D01*
X136262403Y-104780936D01*
X136027000Y-104760341D01*
X135791596Y-104780936D01*
X135563337Y-104842097D01*
X135563333Y-104842098D01*
X135349176Y-104941961D01*
X135155595Y-105077507D01*
X134988507Y-105244595D01*
X134852961Y-105438176D01*
X134753098Y-105652333D01*
X134753097Y-105652337D01*
X134691936Y-105880596D01*
X134671341Y-106116000D01*
X134691936Y-106351403D01*
X134691936Y-106351406D01*
X134691937Y-106351408D01*
X134753097Y-106579663D01*
X134753098Y-106579666D01*
X134852961Y-106793824D01*
X134852964Y-106793829D01*
X134852965Y-106793830D01*
X134881831Y-106835055D01*
X134988507Y-106987404D01*
X135138229Y-107137126D01*
X135159969Y-107183746D01*
X135146655Y-107233433D01*
X135104518Y-107262938D01*
X135085055Y-107265500D01*
X134482408Y-107265500D01*
X134434070Y-107247907D01*
X134429234Y-107243474D01*
X133380634Y-106194874D01*
X133358894Y-106148254D01*
X133372208Y-106098567D01*
X133414345Y-106069062D01*
X133433808Y-106066500D01*
X133638239Y-106066500D01*
X133638243Y-106066500D01*
X133856940Y-106025618D01*
X134064401Y-105945247D01*
X134253562Y-105828124D01*
X134417981Y-105678236D01*
X134552058Y-105500689D01*
X134651229Y-105301528D01*
X134712115Y-105087536D01*
X134731780Y-104875312D01*
X134732643Y-104866002D01*
X134732643Y-104865997D01*
X134722852Y-104760341D01*
X134712115Y-104644464D01*
X134712113Y-104644458D01*
X134712113Y-104644455D01*
X134651231Y-104430480D01*
X134651229Y-104430472D01*
X134601440Y-104330484D01*
X134552059Y-104231312D01*
X134417984Y-104053767D01*
X134417981Y-104053764D01*
X134257736Y-103907680D01*
X134233867Y-103862114D01*
X134244872Y-103811865D01*
X134255219Y-103798938D01*
X137969844Y-100084313D01*
X137972965Y-100081524D01*
X138004936Y-100056030D01*
X138038746Y-100006438D01*
X138074369Y-99958172D01*
X138074369Y-99958169D01*
X138077000Y-99953193D01*
X138077050Y-99953219D01*
X138079721Y-99947928D01*
X138079671Y-99947904D01*
X138082117Y-99942825D01*
X138099808Y-99885470D01*
X138110595Y-99854642D01*
X138119620Y-99828850D01*
X138119620Y-99828847D01*
X138120669Y-99823309D01*
X138120723Y-99823319D01*
X138121715Y-99817484D01*
X138121660Y-99817476D01*
X138122500Y-99811903D01*
X138122500Y-99751881D01*
X138124743Y-99691940D01*
X138124112Y-99686340D01*
X138124167Y-99686333D01*
X138122500Y-99673667D01*
X138122500Y-97065636D01*
X138140093Y-97017298D01*
X138184642Y-96991578D01*
X138219527Y-96993673D01*
X138233868Y-96998024D01*
X138430000Y-97017341D01*
X138626132Y-96998024D01*
X138814727Y-96940814D01*
X138988538Y-96847910D01*
X139140883Y-96722883D01*
X139265910Y-96570538D01*
X139358814Y-96396727D01*
X139416024Y-96208132D01*
X139435341Y-96012000D01*
X139416024Y-95815868D01*
X139358814Y-95627273D01*
X139265910Y-95453462D01*
X139142570Y-95303172D01*
X139140883Y-95301116D01*
X138988539Y-95176091D01*
X138988540Y-95176091D01*
X138988538Y-95176090D01*
X138988535Y-95176088D01*
X138988533Y-95176087D01*
X138924251Y-95141727D01*
X138889914Y-95103425D01*
X138884500Y-95075407D01*
X138884500Y-95045405D01*
X138902093Y-94997067D01*
X138906515Y-94992242D01*
X139743750Y-94155007D01*
X139787105Y-94133625D01*
X139875863Y-94121941D01*
X140021942Y-94061433D01*
X140147383Y-93965179D01*
X140243637Y-93839738D01*
X140303774Y-93694553D01*
X140338525Y-93656629D01*
X140389525Y-93649914D01*
X140412837Y-93659396D01*
X140477359Y-93699346D01*
X140477361Y-93699346D01*
X140477363Y-93699348D01*
X140667544Y-93773024D01*
X140868024Y-93810500D01*
X140868029Y-93810500D01*
X141071971Y-93810500D01*
X141071976Y-93810500D01*
X141272456Y-93773024D01*
X141462637Y-93699348D01*
X141636041Y-93591981D01*
X141766038Y-93473472D01*
X141813612Y-93453909D01*
X141862632Y-93469503D01*
G37*
G04 #@! TD.AperFunction*
G04 #@! TA.AperFunction,Conductor*
G36*
X135135026Y-100140022D02*
G01*
X135152869Y-100152633D01*
X135153080Y-100152382D01*
X135155594Y-100154491D01*
X135155597Y-100154493D01*
X135155599Y-100154495D01*
X135349170Y-100290035D01*
X135349172Y-100290035D01*
X135349175Y-100290038D01*
X135512073Y-100365998D01*
X135563337Y-100389903D01*
X135791592Y-100451063D01*
X136027000Y-100471659D01*
X136117040Y-100463781D01*
X136166727Y-100477095D01*
X136196232Y-100519232D01*
X136191748Y-100570476D01*
X136176768Y-100591869D01*
X133225165Y-103543472D01*
X133222019Y-103546284D01*
X133190067Y-103571764D01*
X133156260Y-103621348D01*
X133120629Y-103669628D01*
X133117998Y-103674607D01*
X133117950Y-103674581D01*
X133115278Y-103679874D01*
X133115327Y-103679898D01*
X133112883Y-103684972D01*
X133104693Y-103711523D01*
X133073632Y-103752527D01*
X133060001Y-103759477D01*
X132989600Y-103786751D01*
X132989597Y-103786753D01*
X132800435Y-103903877D01*
X132636018Y-104053764D01*
X132636015Y-104053767D01*
X132542710Y-104177323D01*
X132499540Y-104205295D01*
X132448490Y-104198973D01*
X132413447Y-104161317D01*
X132407500Y-104132009D01*
X132407500Y-101556125D01*
X132425092Y-101507790D01*
X132469641Y-101482070D01*
X132520299Y-101491003D01*
X132531538Y-101498945D01*
X132637883Y-101589772D01*
X132637889Y-101589777D01*
X132840256Y-101713788D01*
X132840263Y-101713791D01*
X133059558Y-101804626D01*
X133059569Y-101804629D01*
X133290359Y-101860038D01*
X133290369Y-101860040D01*
X133526997Y-101878663D01*
X133527003Y-101878663D01*
X133763630Y-101860040D01*
X133763640Y-101860038D01*
X133994430Y-101804629D01*
X133994441Y-101804626D01*
X134213736Y-101713791D01*
X134213742Y-101713788D01*
X134400891Y-101599102D01*
X134400892Y-101599101D01*
X133654588Y-100852797D01*
X133669315Y-100850680D01*
X133800100Y-100790952D01*
X133908761Y-100696798D01*
X133986493Y-100575844D01*
X134011360Y-100491151D01*
X134760101Y-101239892D01*
X134760102Y-101239891D01*
X134874788Y-101052742D01*
X134874791Y-101052736D01*
X134965626Y-100833441D01*
X134965629Y-100833430D01*
X135021038Y-100602640D01*
X135021040Y-100602630D01*
X135039663Y-100366002D01*
X135039663Y-100365997D01*
X135027684Y-100213797D01*
X135041430Y-100164228D01*
X135083823Y-100135092D01*
X135135026Y-100140022D01*
G37*
G04 #@! TD.AperFunction*
G04 #@! TA.AperFunction,Conductor*
G36*
X140971634Y-76548243D02*
G01*
X141123534Y-76561532D01*
X141136436Y-76563807D01*
X141278956Y-76601995D01*
X141291274Y-76606479D01*
X141424986Y-76668830D01*
X141436338Y-76675384D01*
X141557198Y-76760011D01*
X141567239Y-76768437D01*
X141671562Y-76872760D01*
X141679988Y-76882801D01*
X141764615Y-77003661D01*
X141771169Y-77015013D01*
X141833520Y-77148725D01*
X141838004Y-77161043D01*
X141876191Y-77303560D01*
X141878467Y-77316469D01*
X141891757Y-77468365D01*
X141891900Y-77471644D01*
X141891900Y-81763638D01*
X141874307Y-81811976D01*
X141829758Y-81837696D01*
X141779100Y-81828763D01*
X141760249Y-81813321D01*
X141656620Y-81695575D01*
X141656618Y-81695573D01*
X141656617Y-81695572D01*
X141477234Y-81550730D01*
X141477229Y-81550727D01*
X141477228Y-81550726D01*
X141275937Y-81438279D01*
X141275931Y-81438276D01*
X141058542Y-81361467D01*
X140831287Y-81322500D01*
X140831285Y-81322500D01*
X140658465Y-81322500D01*
X140585185Y-81328737D01*
X140486266Y-81337156D01*
X140486263Y-81337156D01*
X140486261Y-81337157D01*
X140392897Y-81361467D01*
X140263130Y-81395255D01*
X140053031Y-81490224D01*
X140053028Y-81490226D01*
X139862000Y-81619340D01*
X139695541Y-81778877D01*
X139695535Y-81778884D01*
X139558435Y-81964256D01*
X139558429Y-81964266D01*
X139454633Y-82170133D01*
X139454629Y-82170141D01*
X139387114Y-82390602D01*
X139357828Y-82619306D01*
X139367613Y-82849663D01*
X139367613Y-82849665D01*
X139416189Y-83075061D01*
X139502157Y-83289003D01*
X139502161Y-83289010D01*
X139564179Y-83389733D01*
X139623049Y-83485343D01*
X139775380Y-83658425D01*
X139775382Y-83658427D01*
X139954765Y-83803269D01*
X139954768Y-83803270D01*
X139954772Y-83803274D01*
X140156063Y-83915721D01*
X140156066Y-83915722D01*
X140156068Y-83915723D01*
X140373458Y-83992532D01*
X140373460Y-83992532D01*
X140373462Y-83992533D01*
X140395916Y-83996383D01*
X140440585Y-84021892D01*
X140458407Y-84070146D01*
X140441042Y-84118566D01*
X140422796Y-84134437D01*
X140303956Y-84208020D01*
X140153235Y-84345421D01*
X140153232Y-84345424D01*
X140030324Y-84508182D01*
X139939418Y-84690748D01*
X139939416Y-84690752D01*
X139883603Y-84886912D01*
X139864785Y-85089997D01*
X139864785Y-85090002D01*
X139883603Y-85293087D01*
X139939416Y-85489247D01*
X139939418Y-85489251D01*
X140030324Y-85671817D01*
X140153232Y-85834575D01*
X140153235Y-85834578D01*
X140153236Y-85834579D01*
X140158776Y-85839629D01*
X140303956Y-85971979D01*
X140477359Y-86079346D01*
X140477361Y-86079346D01*
X140477363Y-86079348D01*
X140667544Y-86153024D01*
X140868024Y-86190500D01*
X140868029Y-86190500D01*
X141071971Y-86190500D01*
X141071976Y-86190500D01*
X141272456Y-86153024D01*
X141462637Y-86079348D01*
X141636041Y-85971981D01*
X141766038Y-85853472D01*
X141813612Y-85833909D01*
X141862632Y-85849503D01*
X141890159Y-85892958D01*
X141891900Y-85909046D01*
X141891900Y-86810953D01*
X141874307Y-86859291D01*
X141829758Y-86885011D01*
X141779100Y-86876078D01*
X141766038Y-86866526D01*
X141636043Y-86748020D01*
X141462640Y-86640653D01*
X141272457Y-86566976D01*
X141239042Y-86560730D01*
X141071976Y-86529500D01*
X140868024Y-86529500D01*
X140734370Y-86554484D01*
X140667542Y-86566976D01*
X140477360Y-86640653D01*
X140477359Y-86640653D01*
X140303956Y-86748020D01*
X140153235Y-86885421D01*
X140153232Y-86885424D01*
X140030324Y-87048182D01*
X139939418Y-87230748D01*
X139939416Y-87230752D01*
X139883603Y-87426912D01*
X139864785Y-87629997D01*
X139864785Y-87630002D01*
X139883603Y-87833087D01*
X139939416Y-88029247D01*
X139939418Y-88029251D01*
X140030324Y-88211817D01*
X140153232Y-88374575D01*
X140153235Y-88374578D01*
X140303956Y-88511979D01*
X140477359Y-88619346D01*
X140477361Y-88619346D01*
X140477363Y-88619348D01*
X140667544Y-88693024D01*
X140868024Y-88730500D01*
X140868029Y-88730500D01*
X141071971Y-88730500D01*
X141071976Y-88730500D01*
X141272456Y-88693024D01*
X141462637Y-88619348D01*
X141636041Y-88511981D01*
X141766038Y-88393472D01*
X141813612Y-88373909D01*
X141862632Y-88389503D01*
X141890159Y-88432958D01*
X141891900Y-88449046D01*
X141891900Y-89350953D01*
X141874307Y-89399291D01*
X141829758Y-89425011D01*
X141779100Y-89416078D01*
X141766038Y-89406526D01*
X141636043Y-89288020D01*
X141462640Y-89180653D01*
X141272457Y-89106976D01*
X141239042Y-89100730D01*
X141071976Y-89069500D01*
X140868024Y-89069500D01*
X140667544Y-89106976D01*
X140667539Y-89106977D01*
X140667538Y-89106977D01*
X140650993Y-89113386D01*
X140599564Y-89114440D01*
X140570658Y-89096437D01*
X139050526Y-87576304D01*
X139028786Y-87529684D01*
X139028500Y-87523130D01*
X139028500Y-86978926D01*
X139028737Y-86974713D01*
X139032335Y-86942778D01*
X139033313Y-86934100D01*
X139022155Y-86875133D01*
X139015354Y-86830007D01*
X139013214Y-86815807D01*
X139011553Y-86810424D01*
X139011607Y-86810407D01*
X139009757Y-86804784D01*
X139009704Y-86804803D01*
X139007843Y-86799485D01*
X139007841Y-86799482D01*
X139007841Y-86799479D01*
X138992716Y-86770861D01*
X138979800Y-86746422D01*
X138967018Y-86719882D01*
X138953767Y-86692366D01*
X138953764Y-86692363D01*
X138950590Y-86687707D01*
X138950636Y-86687675D01*
X138947211Y-86682847D01*
X138947166Y-86682881D01*
X138943817Y-86678343D01*
X138901389Y-86635916D01*
X138860573Y-86591926D01*
X138856171Y-86588416D01*
X138856205Y-86588373D01*
X138846066Y-86580593D01*
X138209639Y-85944165D01*
X138206827Y-85941019D01*
X138206034Y-85940024D01*
X138181344Y-85909064D01*
X138131763Y-85875260D01*
X138102242Y-85853473D01*
X138083484Y-85839629D01*
X138078503Y-85836997D01*
X138078528Y-85836948D01*
X138073245Y-85834281D01*
X138073222Y-85834330D01*
X138068144Y-85831885D01*
X138010796Y-85814195D01*
X137954167Y-85794379D01*
X137948631Y-85793332D01*
X137948640Y-85793279D01*
X137942796Y-85792286D01*
X137942789Y-85792339D01*
X137937221Y-85791500D01*
X137937218Y-85791500D01*
X137877222Y-85791500D01*
X137817252Y-85789255D01*
X137811652Y-85789887D01*
X137811645Y-85789832D01*
X137798976Y-85791500D01*
X136898927Y-85791500D01*
X136894714Y-85791263D01*
X136854102Y-85786687D01*
X136854096Y-85786687D01*
X136795133Y-85797844D01*
X136735807Y-85806786D01*
X136730423Y-85808447D01*
X136730407Y-85808395D01*
X136724778Y-85810247D01*
X136724796Y-85810299D01*
X136719475Y-85812160D01*
X136666422Y-85840200D01*
X136612367Y-85866232D01*
X136607711Y-85869407D01*
X136607680Y-85869362D01*
X136602848Y-85872790D01*
X136602880Y-85872834D01*
X136598348Y-85876178D01*
X136555916Y-85918610D01*
X136511928Y-85959425D01*
X136508416Y-85963830D01*
X136508373Y-85963796D01*
X136500595Y-85973930D01*
X135864165Y-86610360D01*
X135861019Y-86613172D01*
X135829067Y-86638652D01*
X135829064Y-86638655D01*
X135829064Y-86638656D01*
X135802005Y-86678343D01*
X135795260Y-86688236D01*
X135759629Y-86736516D01*
X135756998Y-86741495D01*
X135756950Y-86741469D01*
X135754278Y-86746762D01*
X135754327Y-86746786D01*
X135751882Y-86751862D01*
X135734196Y-86809202D01*
X135714377Y-86865839D01*
X135713331Y-86871370D01*
X135713279Y-86871360D01*
X135712286Y-86877204D01*
X135712339Y-86877212D01*
X135711500Y-86882779D01*
X135711500Y-86942778D01*
X135709255Y-87002749D01*
X135709887Y-87008352D01*
X135709832Y-87008358D01*
X135711500Y-87021024D01*
X135711500Y-89136967D01*
X135693907Y-89185305D01*
X135689474Y-89190141D01*
X135150665Y-89728950D01*
X135147519Y-89731762D01*
X135115567Y-89757242D01*
X135081760Y-89806826D01*
X135046129Y-89855106D01*
X135043498Y-89860085D01*
X135043450Y-89860059D01*
X135040778Y-89865352D01*
X135040827Y-89865376D01*
X135038382Y-89870452D01*
X135020696Y-89927792D01*
X135000877Y-89984429D01*
X134999831Y-89989960D01*
X134999779Y-89989950D01*
X134998786Y-89995794D01*
X134998839Y-89995802D01*
X134998000Y-90001369D01*
X134998000Y-90061368D01*
X134995755Y-90121339D01*
X134996387Y-90126942D01*
X134996332Y-90126948D01*
X134998000Y-90139614D01*
X134998000Y-93290096D01*
X134997763Y-93294309D01*
X134993187Y-93334921D01*
X134993187Y-93334928D01*
X135004343Y-93393887D01*
X135013285Y-93453214D01*
X135014947Y-93458601D01*
X135014893Y-93458617D01*
X135016746Y-93464247D01*
X135016798Y-93464229D01*
X135018659Y-93469548D01*
X135046696Y-93522596D01*
X135070660Y-93572355D01*
X135072733Y-93576660D01*
X135072737Y-93576664D01*
X135075908Y-93581315D01*
X135075861Y-93581346D01*
X135079287Y-93586175D01*
X135079332Y-93586143D01*
X135082677Y-93590675D01*
X135082678Y-93590676D01*
X135082680Y-93590679D01*
X135125109Y-93633108D01*
X135165923Y-93677095D01*
X135165924Y-93677096D01*
X135170332Y-93680611D01*
X135170297Y-93680654D01*
X135180433Y-93688432D01*
X136683474Y-95191473D01*
X136705214Y-95238093D01*
X136705500Y-95244647D01*
X136705500Y-96487781D01*
X136705263Y-96491994D01*
X136700687Y-96532606D01*
X136700687Y-96532613D01*
X136711843Y-96591572D01*
X136720785Y-96650899D01*
X136722447Y-96656286D01*
X136722393Y-96656302D01*
X136724246Y-96661932D01*
X136724298Y-96661914D01*
X136726159Y-96667233D01*
X136754196Y-96720281D01*
X136780230Y-96774339D01*
X136780233Y-96774345D01*
X136780237Y-96774349D01*
X136783408Y-96779000D01*
X136783361Y-96779031D01*
X136786787Y-96783860D01*
X136786832Y-96783828D01*
X136790177Y-96788360D01*
X136790178Y-96788361D01*
X136790180Y-96788364D01*
X136832609Y-96830793D01*
X136873423Y-96874780D01*
X136873424Y-96874781D01*
X136877832Y-96878296D01*
X136877797Y-96878339D01*
X136887933Y-96886117D01*
X137191474Y-97189658D01*
X137213214Y-97236278D01*
X137213500Y-97242832D01*
X137213500Y-98217468D01*
X137195907Y-98265806D01*
X137151358Y-98291526D01*
X137100700Y-98282593D01*
X137076700Y-98260602D01*
X137065495Y-98244599D01*
X137065491Y-98244595D01*
X137065490Y-98244593D01*
X136898404Y-98077507D01*
X136704824Y-97941961D01*
X136490666Y-97842098D01*
X136490663Y-97842097D01*
X136262408Y-97780937D01*
X136262406Y-97780936D01*
X136262403Y-97780936D01*
X136058682Y-97763112D01*
X136027000Y-97760341D01*
X136026999Y-97760341D01*
X135791596Y-97780936D01*
X135563337Y-97842097D01*
X135563333Y-97842098D01*
X135349176Y-97941961D01*
X135155595Y-98077507D01*
X134988507Y-98244595D01*
X134852961Y-98438176D01*
X134753098Y-98652333D01*
X134753097Y-98652337D01*
X134691936Y-98880596D01*
X134671341Y-99116000D01*
X134691936Y-99351403D01*
X134691936Y-99351404D01*
X134724837Y-99474199D01*
X134720353Y-99525443D01*
X134705373Y-99546835D01*
X134011360Y-100240847D01*
X133986493Y-100156156D01*
X133908761Y-100035202D01*
X133800100Y-99941048D01*
X133669315Y-99881320D01*
X133654587Y-99879202D01*
X134400892Y-99132897D01*
X134213734Y-99018207D01*
X133994441Y-98927373D01*
X133994430Y-98927370D01*
X133763640Y-98871961D01*
X133763630Y-98871959D01*
X133597800Y-98858908D01*
X133550991Y-98837576D01*
X133528846Y-98791147D01*
X133528500Y-98783940D01*
X133528500Y-98771215D01*
X133530743Y-98711274D01*
X133530112Y-98705674D01*
X133530167Y-98705667D01*
X133528500Y-98693001D01*
X133528500Y-86978927D01*
X133528737Y-86974714D01*
X133529886Y-86964509D01*
X133533313Y-86934101D01*
X133522156Y-86875136D01*
X133513214Y-86815808D01*
X133513211Y-86815802D01*
X133511552Y-86810422D01*
X133511607Y-86810405D01*
X133509757Y-86804784D01*
X133509704Y-86804803D01*
X133507843Y-86799485D01*
X133507841Y-86799482D01*
X133507841Y-86799479D01*
X133492716Y-86770861D01*
X133479800Y-86746422D01*
X133467018Y-86719882D01*
X133453767Y-86692366D01*
X133453764Y-86692363D01*
X133450590Y-86687707D01*
X133450636Y-86687675D01*
X133447211Y-86682847D01*
X133447166Y-86682881D01*
X133443817Y-86678343D01*
X133401389Y-86635916D01*
X133360573Y-86591926D01*
X133356171Y-86588416D01*
X133356205Y-86588373D01*
X133346066Y-86580593D01*
X131553639Y-84788165D01*
X131550827Y-84785019D01*
X131550034Y-84784024D01*
X131525344Y-84753064D01*
X131475763Y-84719260D01*
X131437135Y-84690752D01*
X131427484Y-84683629D01*
X131422503Y-84680997D01*
X131422528Y-84680948D01*
X131417245Y-84678281D01*
X131417222Y-84678330D01*
X131412144Y-84675885D01*
X131354796Y-84658195D01*
X131298167Y-84638379D01*
X131292631Y-84637332D01*
X131292640Y-84637279D01*
X131286796Y-84636286D01*
X131286789Y-84636339D01*
X131281221Y-84635500D01*
X131281218Y-84635500D01*
X131221222Y-84635500D01*
X131161252Y-84633255D01*
X131155652Y-84633887D01*
X131155645Y-84633832D01*
X131142976Y-84635500D01*
X129319633Y-84635500D01*
X129271295Y-84617907D01*
X129252316Y-84593819D01*
X129209674Y-84508182D01*
X129209673Y-84508179D01*
X129178945Y-84467489D01*
X129086767Y-84345424D01*
X129086764Y-84345421D01*
X128936043Y-84208020D01*
X128814038Y-84132477D01*
X128782202Y-84092072D01*
X128783787Y-84040657D01*
X128818050Y-84002289D01*
X128834668Y-83995770D01*
X128976869Y-83958745D01*
X129106803Y-83900011D01*
X129186968Y-83863775D01*
X129186971Y-83863773D01*
X129205480Y-83851263D01*
X129378000Y-83734659D01*
X129544462Y-83575119D01*
X129681566Y-83389742D01*
X129785370Y-83183860D01*
X129852886Y-82963397D01*
X129882172Y-82734694D01*
X129880975Y-82706516D01*
X134862000Y-82706516D01*
X134877211Y-82875525D01*
X134877212Y-82875529D01*
X134937456Y-83093815D01*
X135035704Y-83297833D01*
X135168804Y-83481030D01*
X135332477Y-83637519D01*
X135521460Y-83762265D01*
X135729679Y-83851263D01*
X135866000Y-83882377D01*
X135866000Y-83081115D01*
X135910156Y-83109493D01*
X136048111Y-83150000D01*
X136191889Y-83150000D01*
X136329844Y-83109493D01*
X136374000Y-83081115D01*
X136374000Y-83885081D01*
X136401064Y-83881415D01*
X136401073Y-83881413D01*
X136616419Y-83811444D01*
X136815828Y-83704137D01*
X136815833Y-83704133D01*
X136992869Y-83562952D01*
X137141856Y-83392423D01*
X137257995Y-83198041D01*
X137257997Y-83198036D01*
X137337566Y-82986029D01*
X137377999Y-82763231D01*
X137378000Y-82763220D01*
X137378000Y-82654000D01*
X136620000Y-82654000D01*
X136620000Y-82146000D01*
X137378000Y-82146000D01*
X137378000Y-82093501D01*
X137377999Y-82093483D01*
X137362788Y-81924474D01*
X137362787Y-81924470D01*
X137302543Y-81706184D01*
X137204295Y-81502166D01*
X137071195Y-81318969D01*
X136907522Y-81162480D01*
X136718539Y-81037734D01*
X136510314Y-80948734D01*
X136374000Y-80917620D01*
X136374000Y-81718884D01*
X136329844Y-81690507D01*
X136191889Y-81650000D01*
X136048111Y-81650000D01*
X135910156Y-81690507D01*
X135866000Y-81718884D01*
X135866000Y-80914916D01*
X135838946Y-80918581D01*
X135838926Y-80918585D01*
X135623580Y-80988555D01*
X135424171Y-81095862D01*
X135424166Y-81095866D01*
X135247130Y-81237047D01*
X135098143Y-81407576D01*
X134982004Y-81601958D01*
X134982002Y-81601963D01*
X134902433Y-81813970D01*
X134862000Y-82036768D01*
X134862000Y-82146000D01*
X135620000Y-82146000D01*
X135620000Y-82654000D01*
X134862000Y-82654000D01*
X134862000Y-82706516D01*
X129880975Y-82706516D01*
X129872386Y-82504332D01*
X129823810Y-82278938D01*
X129737841Y-82064994D01*
X129616951Y-81868657D01*
X129464620Y-81695575D01*
X129464618Y-81695573D01*
X129464617Y-81695572D01*
X129285234Y-81550730D01*
X129285229Y-81550727D01*
X129285228Y-81550726D01*
X129083937Y-81438279D01*
X129083931Y-81438276D01*
X128866542Y-81361467D01*
X128639287Y-81322500D01*
X128639285Y-81322500D01*
X128466465Y-81322500D01*
X128393185Y-81328737D01*
X128294266Y-81337156D01*
X128294263Y-81337156D01*
X128294261Y-81337157D01*
X128200897Y-81361467D01*
X128071130Y-81395255D01*
X127861031Y-81490224D01*
X127861028Y-81490226D01*
X127670000Y-81619340D01*
X127503541Y-81778877D01*
X127503533Y-81778886D01*
X127483760Y-81805622D01*
X127440872Y-81834023D01*
X127389762Y-81828212D01*
X127354344Y-81790907D01*
X127348100Y-81760905D01*
X127348100Y-77471643D01*
X127348243Y-77468365D01*
X127361532Y-77316469D01*
X127363806Y-77303565D01*
X127401996Y-77161040D01*
X127406479Y-77148725D01*
X127468830Y-77015013D01*
X127475384Y-77003661D01*
X127560016Y-76882794D01*
X127568431Y-76872766D01*
X127672766Y-76768431D01*
X127682794Y-76760016D01*
X127803664Y-76675381D01*
X127815009Y-76668832D01*
X127948729Y-76606477D01*
X127961040Y-76601996D01*
X128103565Y-76563806D01*
X128116463Y-76561532D01*
X128268365Y-76548243D01*
X128271644Y-76548100D01*
X128325134Y-76548100D01*
X140914866Y-76548100D01*
X140968356Y-76548100D01*
X140971634Y-76548243D01*
G37*
G04 #@! TD.AperFunction*
M02*
