M48
; DRILL file {KiCad 7.0.6} date Thu Sep  7 09:31:13 2023
; FORMAT={-:-/ absolute / inch / decimal}
; #@! TF.CreationDate,2023-09-07T09:31:13-03:00
; #@! TF.GenerationSoftware,Kicad,Pcbnew,7.0.6
; #@! TF.FileFunction,MixedPlating,1,2
FMAT,2
INCH
; #@! TA.AperFunction,Plated,PTH,ViaDrill
T1C0.0157
; #@! TA.AperFunction,Plated,PTH,ComponentDrill
T2C0.0197
; #@! TA.AperFunction,Plated,PTH,ComponentDrill
T3C0.0315
; #@! TA.AperFunction,Plated,PTH,ComponentDrill
T4C0.0394
; #@! TA.AperFunction,Plated,PTH,ComponentDrill
T5C0.0512
; #@! TA.AperFunction,Plated,PTH,ComponentDrill
T6C0.0787
; #@! TA.AperFunction,Plated,PTH,ComponentDrill
T7C0.0984
; #@! TA.AperFunction,NonPlated,NPTH,ComponentDrill
T8C0.0866
%
G90
G05
T1
X5.055Y-3.055
X5.055Y-3.165
X5.055Y-4.13
X5.06Y-4.495
X5.065Y-4.0
X5.075Y-4.64
X5.125Y-3.405
X5.1321Y-4.0213
X5.145Y-3.3
X5.1614Y-3.995
X5.165Y-3.85
X5.2Y-4.46
X5.23Y-4.735
X5.235Y-4.265
X5.24Y-4.04
X5.2864Y-3.7071
X5.295Y-3.445
X5.3Y-3.055
X5.33Y-4.09
X5.365Y-4.45
X5.365Y-4.735
X5.3664Y-3.66
X5.3664Y-3.56
X5.4Y-4.59
X5.44Y-4.27
X5.465Y-3.21
X5.475Y-3.355
X5.5008Y-3.6826
X5.54Y-3.995
X5.54Y-4.09
X5.545Y-3.06
T3
X5.15Y-3.78
X5.1504Y-3.5602
X5.1504Y-3.6602
X5.45Y-3.78
X5.4504Y-3.5602
X5.4504Y-3.6602
T4
X5.05Y-3.35
X5.05Y-3.45
X5.05Y-3.55
X5.05Y-3.65
X5.05Y-3.75
X5.257Y-3.9514
X5.257Y-4.1286
X5.45Y-4.46
X5.55Y-3.35
X5.55Y-3.45
X5.55Y-3.55
X5.55Y-3.65
X5.55Y-3.75
X5.55Y-4.16
X5.55Y-4.26
X5.55Y-4.36
X5.55Y-4.46
T5
X5.3554Y-3.9022
X5.3554Y-4.1778
T6
X5.075Y-3.9
X5.525Y-3.9
T7
X5.5Y-4.61
T8
X5.06Y-3.255
X5.54Y-3.255
T2
G00X5.2803Y-4.5836
M15
G01X5.3197Y-4.5836
M16
G05
G00X5.2803Y-4.682
M15
G01X5.3197Y-4.682
M16
G05
G00X5.2803Y-4.7805
M15
G01X5.3197Y-4.7805
M16
G05
T4
G00X5.1917Y-3.4626
M15
G01X5.1917Y-3.4429
M16
G05
G00X5.3591Y-3.2539
M15
G01X5.3591Y-3.2343
M16
G05
G00X5.4083Y-3.4626
M15
G01X5.4083Y-3.4429
M16
G05
T0
M30
