M48
; DRILL file {KiCad (6.0.7)} date Sun Feb 19 14:27:58 2023
; FORMAT={-:-/ absolute / metric / decimal}
; #@! TF.CreationDate,2023-02-19T14:27:58-04:00
; #@! TF.GenerationSoftware,Kicad,Pcbnew,(6.0.7)
; #@! TF.FileFunction,Plated,1,2,PTH
FMAT,2
METRIC
; #@! TA.AperFunction,Plated,PTH,ViaDrill
T1C0.400
; #@! TA.AperFunction,Plated,PTH,ComponentDrill
T2C0.500
; #@! TA.AperFunction,Plated,PTH,ComponentDrill
T3C0.800
; #@! TA.AperFunction,Plated,PTH,ComponentDrill
T4C1.000
; #@! TA.AperFunction,Plated,PTH,ComponentDrill
T5C1.300
; #@! TA.AperFunction,Plated,PTH,ComponentDrill
T6C2.000
; #@! TA.AperFunction,Plated,PTH,ComponentDrill
T7C2.500
%
G90
G05
T1
X128.397Y-77.597
X128.397Y-80.391
X128.397Y-104.902
X128.524Y-114.173
X128.651Y-101.6
X128.905Y-117.856
X130.175Y-86.487
X130.355Y-102.14
X130.683Y-83.82
X131.1Y-101.473
X131.191Y-97.79
X132.08Y-113.284
X132.842Y-120.269
X132.969Y-108.331
X133.096Y-102.616
X134.276Y-94.161
X134.493Y-87.503
X134.62Y-77.597
X135.382Y-103.886
X136.271Y-113.03
X136.271Y-120.269
X136.306Y-92.964
X136.307Y-90.423
X137.16Y-116.586
X138.176Y-108.458
X138.811Y-81.534
X139.065Y-85.217
X139.719Y-93.537
X140.716Y-101.473
X140.716Y-103.886
X140.843Y-77.724
T3
X130.81Y-96.012
X130.82Y-90.429
X130.82Y-92.969
X138.43Y-96.012
X138.44Y-90.429
X138.44Y-92.969
T4
X128.27Y-85.09
X128.27Y-87.63
X128.27Y-90.17
X128.27Y-92.71
X128.27Y-95.25
X133.527Y-100.366
X133.527Y-104.866
X138.43Y-113.284
X140.97Y-85.09
X140.97Y-87.63
X140.97Y-90.17
X140.97Y-92.71
X140.97Y-95.25
X140.97Y-105.664
X140.97Y-108.204
X140.97Y-110.744
X140.97Y-113.284
T5
X136.027Y-99.116
X136.027Y-106.116
T6
X128.905Y-99.06
X140.335Y-99.06
T7
X139.7Y-117.094
T2
X134.12Y-116.424G85X135.12Y-116.424
G05
X134.12Y-118.924G85X135.12Y-118.924
G05
X134.12Y-121.424G85X135.12Y-121.424
G05
T4
X131.87Y-87.95G85X131.87Y-87.45
G05
X136.12Y-82.65G85X136.12Y-82.15
G05
X137.37Y-87.95G85X137.37Y-87.45
G05
T0
M30
